%TF.GenerationSoftware,KiCad,Pcbnew,9.0.0*%
%TF.CreationDate,2025-05-27T22:11:44-04:00*%
%TF.ProjectId,Pulse circuit,50756c73-6520-4636-9972-637569742e6b,rev?*%
%TF.SameCoordinates,Original*%
%TF.FileFunction,Legend,Bot*%
%TF.FilePolarity,Positive*%
%FSLAX46Y46*%
G04 Gerber Fmt 4.6, Leading zero omitted, Abs format (unit mm)*
G04 Created by KiCad (PCBNEW 9.0.0) date 2025-05-27 22:11:44*
%MOMM*%
%LPD*%
G01*
G04 APERTURE LIST*
%ADD10C,0.150000*%
%ADD11C,0.120000*%
G04 APERTURE END LIST*
D10*
X143905394Y-68657319D02*
X143905394Y-67657319D01*
X142857776Y-68657319D02*
X143191109Y-68181128D01*
X143429204Y-68657319D02*
X143429204Y-67657319D01*
X143429204Y-67657319D02*
X143048252Y-67657319D01*
X143048252Y-67657319D02*
X142953014Y-67704938D01*
X142953014Y-67704938D02*
X142905395Y-67752557D01*
X142905395Y-67752557D02*
X142857776Y-67847795D01*
X142857776Y-67847795D02*
X142857776Y-67990652D01*
X142857776Y-67990652D02*
X142905395Y-68085890D01*
X142905395Y-68085890D02*
X142953014Y-68133509D01*
X142953014Y-68133509D02*
X143048252Y-68181128D01*
X143048252Y-68181128D02*
X143429204Y-68181128D01*
X142429204Y-68657319D02*
X142429204Y-67657319D01*
X142429204Y-67657319D02*
X142191109Y-67657319D01*
X142191109Y-67657319D02*
X142048252Y-67704938D01*
X142048252Y-67704938D02*
X141953014Y-67800176D01*
X141953014Y-67800176D02*
X141905395Y-67895414D01*
X141905395Y-67895414D02*
X141857776Y-68085890D01*
X141857776Y-68085890D02*
X141857776Y-68228747D01*
X141857776Y-68228747D02*
X141905395Y-68419223D01*
X141905395Y-68419223D02*
X141953014Y-68514461D01*
X141953014Y-68514461D02*
X142048252Y-68609700D01*
X142048252Y-68609700D02*
X142191109Y-68657319D01*
X142191109Y-68657319D02*
X142429204Y-68657319D01*
X148244680Y-71174700D02*
X148101823Y-71222319D01*
X148101823Y-71222319D02*
X147863728Y-71222319D01*
X147863728Y-71222319D02*
X147768490Y-71174700D01*
X147768490Y-71174700D02*
X147720871Y-71127080D01*
X147720871Y-71127080D02*
X147673252Y-71031842D01*
X147673252Y-71031842D02*
X147673252Y-70936604D01*
X147673252Y-70936604D02*
X147720871Y-70841366D01*
X147720871Y-70841366D02*
X147768490Y-70793747D01*
X147768490Y-70793747D02*
X147863728Y-70746128D01*
X147863728Y-70746128D02*
X148054204Y-70698509D01*
X148054204Y-70698509D02*
X148149442Y-70650890D01*
X148149442Y-70650890D02*
X148197061Y-70603271D01*
X148197061Y-70603271D02*
X148244680Y-70508033D01*
X148244680Y-70508033D02*
X148244680Y-70412795D01*
X148244680Y-70412795D02*
X148197061Y-70317557D01*
X148197061Y-70317557D02*
X148149442Y-70269938D01*
X148149442Y-70269938D02*
X148054204Y-70222319D01*
X148054204Y-70222319D02*
X147816109Y-70222319D01*
X147816109Y-70222319D02*
X147673252Y-70269938D01*
X147244680Y-71222319D02*
X147244680Y-70222319D01*
X147244680Y-70222319D02*
X147006585Y-70222319D01*
X147006585Y-70222319D02*
X146863728Y-70269938D01*
X146863728Y-70269938D02*
X146768490Y-70365176D01*
X146768490Y-70365176D02*
X146720871Y-70460414D01*
X146720871Y-70460414D02*
X146673252Y-70650890D01*
X146673252Y-70650890D02*
X146673252Y-70793747D01*
X146673252Y-70793747D02*
X146720871Y-70984223D01*
X146720871Y-70984223D02*
X146768490Y-71079461D01*
X146768490Y-71079461D02*
X146863728Y-71174700D01*
X146863728Y-71174700D02*
X147006585Y-71222319D01*
X147006585Y-71222319D02*
X147244680Y-71222319D01*
X146292299Y-70936604D02*
X145816109Y-70936604D01*
X146387537Y-71222319D02*
X146054204Y-70222319D01*
X146054204Y-70222319D02*
X145720871Y-71222319D01*
X143095871Y-71197319D02*
X143429204Y-70721128D01*
X143667299Y-71197319D02*
X143667299Y-70197319D01*
X143667299Y-70197319D02*
X143286347Y-70197319D01*
X143286347Y-70197319D02*
X143191109Y-70244938D01*
X143191109Y-70244938D02*
X143143490Y-70292557D01*
X143143490Y-70292557D02*
X143095871Y-70387795D01*
X143095871Y-70387795D02*
X143095871Y-70530652D01*
X143095871Y-70530652D02*
X143143490Y-70625890D01*
X143143490Y-70625890D02*
X143191109Y-70673509D01*
X143191109Y-70673509D02*
X143286347Y-70721128D01*
X143286347Y-70721128D02*
X143667299Y-70721128D01*
X142667299Y-71197319D02*
X142667299Y-70197319D01*
X142667299Y-70197319D02*
X142429204Y-70197319D01*
X142429204Y-70197319D02*
X142286347Y-70244938D01*
X142286347Y-70244938D02*
X142191109Y-70340176D01*
X142191109Y-70340176D02*
X142143490Y-70435414D01*
X142143490Y-70435414D02*
X142095871Y-70625890D01*
X142095871Y-70625890D02*
X142095871Y-70768747D01*
X142095871Y-70768747D02*
X142143490Y-70959223D01*
X142143490Y-70959223D02*
X142191109Y-71054461D01*
X142191109Y-71054461D02*
X142286347Y-71149700D01*
X142286347Y-71149700D02*
X142429204Y-71197319D01*
X142429204Y-71197319D02*
X142667299Y-71197319D01*
X143810156Y-66117319D02*
X143810156Y-65117319D01*
X143333966Y-66117319D02*
X143333966Y-65117319D01*
X143333966Y-65117319D02*
X142762538Y-66117319D01*
X142762538Y-66117319D02*
X142762538Y-65117319D01*
X142429204Y-65117319D02*
X141857776Y-65117319D01*
X142143490Y-66117319D02*
X142143490Y-65117319D01*
X148220870Y-68634700D02*
X148078013Y-68682319D01*
X148078013Y-68682319D02*
X147839918Y-68682319D01*
X147839918Y-68682319D02*
X147744680Y-68634700D01*
X147744680Y-68634700D02*
X147697061Y-68587080D01*
X147697061Y-68587080D02*
X147649442Y-68491842D01*
X147649442Y-68491842D02*
X147649442Y-68396604D01*
X147649442Y-68396604D02*
X147697061Y-68301366D01*
X147697061Y-68301366D02*
X147744680Y-68253747D01*
X147744680Y-68253747D02*
X147839918Y-68206128D01*
X147839918Y-68206128D02*
X148030394Y-68158509D01*
X148030394Y-68158509D02*
X148125632Y-68110890D01*
X148125632Y-68110890D02*
X148173251Y-68063271D01*
X148173251Y-68063271D02*
X148220870Y-67968033D01*
X148220870Y-67968033D02*
X148220870Y-67872795D01*
X148220870Y-67872795D02*
X148173251Y-67777557D01*
X148173251Y-67777557D02*
X148125632Y-67729938D01*
X148125632Y-67729938D02*
X148030394Y-67682319D01*
X148030394Y-67682319D02*
X147792299Y-67682319D01*
X147792299Y-67682319D02*
X147649442Y-67729938D01*
X146649442Y-68587080D02*
X146697061Y-68634700D01*
X146697061Y-68634700D02*
X146839918Y-68682319D01*
X146839918Y-68682319D02*
X146935156Y-68682319D01*
X146935156Y-68682319D02*
X147078013Y-68634700D01*
X147078013Y-68634700D02*
X147173251Y-68539461D01*
X147173251Y-68539461D02*
X147220870Y-68444223D01*
X147220870Y-68444223D02*
X147268489Y-68253747D01*
X147268489Y-68253747D02*
X147268489Y-68110890D01*
X147268489Y-68110890D02*
X147220870Y-67920414D01*
X147220870Y-67920414D02*
X147173251Y-67825176D01*
X147173251Y-67825176D02*
X147078013Y-67729938D01*
X147078013Y-67729938D02*
X146935156Y-67682319D01*
X146935156Y-67682319D02*
X146839918Y-67682319D01*
X146839918Y-67682319D02*
X146697061Y-67729938D01*
X146697061Y-67729938D02*
X146649442Y-67777557D01*
X145744680Y-68682319D02*
X146220870Y-68682319D01*
X146220870Y-68682319D02*
X146220870Y-67682319D01*
X147792299Y-65189938D02*
X147887537Y-65142319D01*
X147887537Y-65142319D02*
X148030394Y-65142319D01*
X148030394Y-65142319D02*
X148173251Y-65189938D01*
X148173251Y-65189938D02*
X148268489Y-65285176D01*
X148268489Y-65285176D02*
X148316108Y-65380414D01*
X148316108Y-65380414D02*
X148363727Y-65570890D01*
X148363727Y-65570890D02*
X148363727Y-65713747D01*
X148363727Y-65713747D02*
X148316108Y-65904223D01*
X148316108Y-65904223D02*
X148268489Y-65999461D01*
X148268489Y-65999461D02*
X148173251Y-66094700D01*
X148173251Y-66094700D02*
X148030394Y-66142319D01*
X148030394Y-66142319D02*
X147935156Y-66142319D01*
X147935156Y-66142319D02*
X147792299Y-66094700D01*
X147792299Y-66094700D02*
X147744680Y-66047080D01*
X147744680Y-66047080D02*
X147744680Y-65713747D01*
X147744680Y-65713747D02*
X147935156Y-65713747D01*
X147316108Y-66142319D02*
X147316108Y-65142319D01*
X147316108Y-65142319D02*
X146744680Y-66142319D01*
X146744680Y-66142319D02*
X146744680Y-65142319D01*
X146268489Y-66142319D02*
X146268489Y-65142319D01*
X146268489Y-65142319D02*
X146030394Y-65142319D01*
X146030394Y-65142319D02*
X145887537Y-65189938D01*
X145887537Y-65189938D02*
X145792299Y-65285176D01*
X145792299Y-65285176D02*
X145744680Y-65380414D01*
X145744680Y-65380414D02*
X145697061Y-65570890D01*
X145697061Y-65570890D02*
X145697061Y-65713747D01*
X145697061Y-65713747D02*
X145744680Y-65904223D01*
X145744680Y-65904223D02*
X145792299Y-65999461D01*
X145792299Y-65999461D02*
X145887537Y-66094700D01*
X145887537Y-66094700D02*
X146030394Y-66142319D01*
X146030394Y-66142319D02*
X146268489Y-66142319D01*
X148125632Y-72762319D02*
X147792299Y-73762319D01*
X147792299Y-73762319D02*
X147458966Y-72762319D01*
X147125632Y-73762319D02*
X147125632Y-72762319D01*
X146649442Y-73762319D02*
X146649442Y-72762319D01*
X146649442Y-72762319D02*
X146078014Y-73762319D01*
X146078014Y-73762319D02*
X146078014Y-72762319D01*
X143667299Y-72784938D02*
X143762537Y-72737319D01*
X143762537Y-72737319D02*
X143905394Y-72737319D01*
X143905394Y-72737319D02*
X144048251Y-72784938D01*
X144048251Y-72784938D02*
X144143489Y-72880176D01*
X144143489Y-72880176D02*
X144191108Y-72975414D01*
X144191108Y-72975414D02*
X144238727Y-73165890D01*
X144238727Y-73165890D02*
X144238727Y-73308747D01*
X144238727Y-73308747D02*
X144191108Y-73499223D01*
X144191108Y-73499223D02*
X144143489Y-73594461D01*
X144143489Y-73594461D02*
X144048251Y-73689700D01*
X144048251Y-73689700D02*
X143905394Y-73737319D01*
X143905394Y-73737319D02*
X143810156Y-73737319D01*
X143810156Y-73737319D02*
X143667299Y-73689700D01*
X143667299Y-73689700D02*
X143619680Y-73642080D01*
X143619680Y-73642080D02*
X143619680Y-73308747D01*
X143619680Y-73308747D02*
X143810156Y-73308747D01*
X143191108Y-73737319D02*
X143191108Y-72737319D01*
X143191108Y-72737319D02*
X142619680Y-73737319D01*
X142619680Y-73737319D02*
X142619680Y-72737319D01*
X142143489Y-73737319D02*
X142143489Y-72737319D01*
X142143489Y-72737319D02*
X141905394Y-72737319D01*
X141905394Y-72737319D02*
X141762537Y-72784938D01*
X141762537Y-72784938D02*
X141667299Y-72880176D01*
X141667299Y-72880176D02*
X141619680Y-72975414D01*
X141619680Y-72975414D02*
X141572061Y-73165890D01*
X141572061Y-73165890D02*
X141572061Y-73308747D01*
X141572061Y-73308747D02*
X141619680Y-73499223D01*
X141619680Y-73499223D02*
X141667299Y-73594461D01*
X141667299Y-73594461D02*
X141762537Y-73689700D01*
X141762537Y-73689700D02*
X141905394Y-73737319D01*
X141905394Y-73737319D02*
X142143489Y-73737319D01*
X158105394Y-68657319D02*
X158105394Y-67657319D01*
X157057776Y-68657319D02*
X157391109Y-68181128D01*
X157629204Y-68657319D02*
X157629204Y-67657319D01*
X157629204Y-67657319D02*
X157248252Y-67657319D01*
X157248252Y-67657319D02*
X157153014Y-67704938D01*
X157153014Y-67704938D02*
X157105395Y-67752557D01*
X157105395Y-67752557D02*
X157057776Y-67847795D01*
X157057776Y-67847795D02*
X157057776Y-67990652D01*
X157057776Y-67990652D02*
X157105395Y-68085890D01*
X157105395Y-68085890D02*
X157153014Y-68133509D01*
X157153014Y-68133509D02*
X157248252Y-68181128D01*
X157248252Y-68181128D02*
X157629204Y-68181128D01*
X156629204Y-68657319D02*
X156629204Y-67657319D01*
X156629204Y-67657319D02*
X156391109Y-67657319D01*
X156391109Y-67657319D02*
X156248252Y-67704938D01*
X156248252Y-67704938D02*
X156153014Y-67800176D01*
X156153014Y-67800176D02*
X156105395Y-67895414D01*
X156105395Y-67895414D02*
X156057776Y-68085890D01*
X156057776Y-68085890D02*
X156057776Y-68228747D01*
X156057776Y-68228747D02*
X156105395Y-68419223D01*
X156105395Y-68419223D02*
X156153014Y-68514461D01*
X156153014Y-68514461D02*
X156248252Y-68609700D01*
X156248252Y-68609700D02*
X156391109Y-68657319D01*
X156391109Y-68657319D02*
X156629204Y-68657319D01*
X162444680Y-71174700D02*
X162301823Y-71222319D01*
X162301823Y-71222319D02*
X162063728Y-71222319D01*
X162063728Y-71222319D02*
X161968490Y-71174700D01*
X161968490Y-71174700D02*
X161920871Y-71127080D01*
X161920871Y-71127080D02*
X161873252Y-71031842D01*
X161873252Y-71031842D02*
X161873252Y-70936604D01*
X161873252Y-70936604D02*
X161920871Y-70841366D01*
X161920871Y-70841366D02*
X161968490Y-70793747D01*
X161968490Y-70793747D02*
X162063728Y-70746128D01*
X162063728Y-70746128D02*
X162254204Y-70698509D01*
X162254204Y-70698509D02*
X162349442Y-70650890D01*
X162349442Y-70650890D02*
X162397061Y-70603271D01*
X162397061Y-70603271D02*
X162444680Y-70508033D01*
X162444680Y-70508033D02*
X162444680Y-70412795D01*
X162444680Y-70412795D02*
X162397061Y-70317557D01*
X162397061Y-70317557D02*
X162349442Y-70269938D01*
X162349442Y-70269938D02*
X162254204Y-70222319D01*
X162254204Y-70222319D02*
X162016109Y-70222319D01*
X162016109Y-70222319D02*
X161873252Y-70269938D01*
X161444680Y-71222319D02*
X161444680Y-70222319D01*
X161444680Y-70222319D02*
X161206585Y-70222319D01*
X161206585Y-70222319D02*
X161063728Y-70269938D01*
X161063728Y-70269938D02*
X160968490Y-70365176D01*
X160968490Y-70365176D02*
X160920871Y-70460414D01*
X160920871Y-70460414D02*
X160873252Y-70650890D01*
X160873252Y-70650890D02*
X160873252Y-70793747D01*
X160873252Y-70793747D02*
X160920871Y-70984223D01*
X160920871Y-70984223D02*
X160968490Y-71079461D01*
X160968490Y-71079461D02*
X161063728Y-71174700D01*
X161063728Y-71174700D02*
X161206585Y-71222319D01*
X161206585Y-71222319D02*
X161444680Y-71222319D01*
X160492299Y-70936604D02*
X160016109Y-70936604D01*
X160587537Y-71222319D02*
X160254204Y-70222319D01*
X160254204Y-70222319D02*
X159920871Y-71222319D01*
X157295871Y-71197319D02*
X157629204Y-70721128D01*
X157867299Y-71197319D02*
X157867299Y-70197319D01*
X157867299Y-70197319D02*
X157486347Y-70197319D01*
X157486347Y-70197319D02*
X157391109Y-70244938D01*
X157391109Y-70244938D02*
X157343490Y-70292557D01*
X157343490Y-70292557D02*
X157295871Y-70387795D01*
X157295871Y-70387795D02*
X157295871Y-70530652D01*
X157295871Y-70530652D02*
X157343490Y-70625890D01*
X157343490Y-70625890D02*
X157391109Y-70673509D01*
X157391109Y-70673509D02*
X157486347Y-70721128D01*
X157486347Y-70721128D02*
X157867299Y-70721128D01*
X156867299Y-71197319D02*
X156867299Y-70197319D01*
X156867299Y-70197319D02*
X156629204Y-70197319D01*
X156629204Y-70197319D02*
X156486347Y-70244938D01*
X156486347Y-70244938D02*
X156391109Y-70340176D01*
X156391109Y-70340176D02*
X156343490Y-70435414D01*
X156343490Y-70435414D02*
X156295871Y-70625890D01*
X156295871Y-70625890D02*
X156295871Y-70768747D01*
X156295871Y-70768747D02*
X156343490Y-70959223D01*
X156343490Y-70959223D02*
X156391109Y-71054461D01*
X156391109Y-71054461D02*
X156486347Y-71149700D01*
X156486347Y-71149700D02*
X156629204Y-71197319D01*
X156629204Y-71197319D02*
X156867299Y-71197319D01*
X158010156Y-66117319D02*
X158010156Y-65117319D01*
X157533966Y-66117319D02*
X157533966Y-65117319D01*
X157533966Y-65117319D02*
X156962538Y-66117319D01*
X156962538Y-66117319D02*
X156962538Y-65117319D01*
X156629204Y-65117319D02*
X156057776Y-65117319D01*
X156343490Y-66117319D02*
X156343490Y-65117319D01*
X162420870Y-68634700D02*
X162278013Y-68682319D01*
X162278013Y-68682319D02*
X162039918Y-68682319D01*
X162039918Y-68682319D02*
X161944680Y-68634700D01*
X161944680Y-68634700D02*
X161897061Y-68587080D01*
X161897061Y-68587080D02*
X161849442Y-68491842D01*
X161849442Y-68491842D02*
X161849442Y-68396604D01*
X161849442Y-68396604D02*
X161897061Y-68301366D01*
X161897061Y-68301366D02*
X161944680Y-68253747D01*
X161944680Y-68253747D02*
X162039918Y-68206128D01*
X162039918Y-68206128D02*
X162230394Y-68158509D01*
X162230394Y-68158509D02*
X162325632Y-68110890D01*
X162325632Y-68110890D02*
X162373251Y-68063271D01*
X162373251Y-68063271D02*
X162420870Y-67968033D01*
X162420870Y-67968033D02*
X162420870Y-67872795D01*
X162420870Y-67872795D02*
X162373251Y-67777557D01*
X162373251Y-67777557D02*
X162325632Y-67729938D01*
X162325632Y-67729938D02*
X162230394Y-67682319D01*
X162230394Y-67682319D02*
X161992299Y-67682319D01*
X161992299Y-67682319D02*
X161849442Y-67729938D01*
X160849442Y-68587080D02*
X160897061Y-68634700D01*
X160897061Y-68634700D02*
X161039918Y-68682319D01*
X161039918Y-68682319D02*
X161135156Y-68682319D01*
X161135156Y-68682319D02*
X161278013Y-68634700D01*
X161278013Y-68634700D02*
X161373251Y-68539461D01*
X161373251Y-68539461D02*
X161420870Y-68444223D01*
X161420870Y-68444223D02*
X161468489Y-68253747D01*
X161468489Y-68253747D02*
X161468489Y-68110890D01*
X161468489Y-68110890D02*
X161420870Y-67920414D01*
X161420870Y-67920414D02*
X161373251Y-67825176D01*
X161373251Y-67825176D02*
X161278013Y-67729938D01*
X161278013Y-67729938D02*
X161135156Y-67682319D01*
X161135156Y-67682319D02*
X161039918Y-67682319D01*
X161039918Y-67682319D02*
X160897061Y-67729938D01*
X160897061Y-67729938D02*
X160849442Y-67777557D01*
X159944680Y-68682319D02*
X160420870Y-68682319D01*
X160420870Y-68682319D02*
X160420870Y-67682319D01*
X161992299Y-65189938D02*
X162087537Y-65142319D01*
X162087537Y-65142319D02*
X162230394Y-65142319D01*
X162230394Y-65142319D02*
X162373251Y-65189938D01*
X162373251Y-65189938D02*
X162468489Y-65285176D01*
X162468489Y-65285176D02*
X162516108Y-65380414D01*
X162516108Y-65380414D02*
X162563727Y-65570890D01*
X162563727Y-65570890D02*
X162563727Y-65713747D01*
X162563727Y-65713747D02*
X162516108Y-65904223D01*
X162516108Y-65904223D02*
X162468489Y-65999461D01*
X162468489Y-65999461D02*
X162373251Y-66094700D01*
X162373251Y-66094700D02*
X162230394Y-66142319D01*
X162230394Y-66142319D02*
X162135156Y-66142319D01*
X162135156Y-66142319D02*
X161992299Y-66094700D01*
X161992299Y-66094700D02*
X161944680Y-66047080D01*
X161944680Y-66047080D02*
X161944680Y-65713747D01*
X161944680Y-65713747D02*
X162135156Y-65713747D01*
X161516108Y-66142319D02*
X161516108Y-65142319D01*
X161516108Y-65142319D02*
X160944680Y-66142319D01*
X160944680Y-66142319D02*
X160944680Y-65142319D01*
X160468489Y-66142319D02*
X160468489Y-65142319D01*
X160468489Y-65142319D02*
X160230394Y-65142319D01*
X160230394Y-65142319D02*
X160087537Y-65189938D01*
X160087537Y-65189938D02*
X159992299Y-65285176D01*
X159992299Y-65285176D02*
X159944680Y-65380414D01*
X159944680Y-65380414D02*
X159897061Y-65570890D01*
X159897061Y-65570890D02*
X159897061Y-65713747D01*
X159897061Y-65713747D02*
X159944680Y-65904223D01*
X159944680Y-65904223D02*
X159992299Y-65999461D01*
X159992299Y-65999461D02*
X160087537Y-66094700D01*
X160087537Y-66094700D02*
X160230394Y-66142319D01*
X160230394Y-66142319D02*
X160468489Y-66142319D01*
X162325632Y-72762319D02*
X161992299Y-73762319D01*
X161992299Y-73762319D02*
X161658966Y-72762319D01*
X161325632Y-73762319D02*
X161325632Y-72762319D01*
X160849442Y-73762319D02*
X160849442Y-72762319D01*
X160849442Y-72762319D02*
X160278014Y-73762319D01*
X160278014Y-73762319D02*
X160278014Y-72762319D01*
X157867299Y-72784938D02*
X157962537Y-72737319D01*
X157962537Y-72737319D02*
X158105394Y-72737319D01*
X158105394Y-72737319D02*
X158248251Y-72784938D01*
X158248251Y-72784938D02*
X158343489Y-72880176D01*
X158343489Y-72880176D02*
X158391108Y-72975414D01*
X158391108Y-72975414D02*
X158438727Y-73165890D01*
X158438727Y-73165890D02*
X158438727Y-73308747D01*
X158438727Y-73308747D02*
X158391108Y-73499223D01*
X158391108Y-73499223D02*
X158343489Y-73594461D01*
X158343489Y-73594461D02*
X158248251Y-73689700D01*
X158248251Y-73689700D02*
X158105394Y-73737319D01*
X158105394Y-73737319D02*
X158010156Y-73737319D01*
X158010156Y-73737319D02*
X157867299Y-73689700D01*
X157867299Y-73689700D02*
X157819680Y-73642080D01*
X157819680Y-73642080D02*
X157819680Y-73308747D01*
X157819680Y-73308747D02*
X158010156Y-73308747D01*
X157391108Y-73737319D02*
X157391108Y-72737319D01*
X157391108Y-72737319D02*
X156819680Y-73737319D01*
X156819680Y-73737319D02*
X156819680Y-72737319D01*
X156343489Y-73737319D02*
X156343489Y-72737319D01*
X156343489Y-72737319D02*
X156105394Y-72737319D01*
X156105394Y-72737319D02*
X155962537Y-72784938D01*
X155962537Y-72784938D02*
X155867299Y-72880176D01*
X155867299Y-72880176D02*
X155819680Y-72975414D01*
X155819680Y-72975414D02*
X155772061Y-73165890D01*
X155772061Y-73165890D02*
X155772061Y-73308747D01*
X155772061Y-73308747D02*
X155819680Y-73499223D01*
X155819680Y-73499223D02*
X155867299Y-73594461D01*
X155867299Y-73594461D02*
X155962537Y-73689700D01*
X155962537Y-73689700D02*
X156105394Y-73737319D01*
X156105394Y-73737319D02*
X156343489Y-73737319D01*
X152477857Y-78584819D02*
X152811190Y-78108628D01*
X153049285Y-78584819D02*
X153049285Y-77584819D01*
X153049285Y-77584819D02*
X152668333Y-77584819D01*
X152668333Y-77584819D02*
X152573095Y-77632438D01*
X152573095Y-77632438D02*
X152525476Y-77680057D01*
X152525476Y-77680057D02*
X152477857Y-77775295D01*
X152477857Y-77775295D02*
X152477857Y-77918152D01*
X152477857Y-77918152D02*
X152525476Y-78013390D01*
X152525476Y-78013390D02*
X152573095Y-78061009D01*
X152573095Y-78061009D02*
X152668333Y-78108628D01*
X152668333Y-78108628D02*
X153049285Y-78108628D01*
X151525476Y-78584819D02*
X152096904Y-78584819D01*
X151811190Y-78584819D02*
X151811190Y-77584819D01*
X151811190Y-77584819D02*
X151906428Y-77727676D01*
X151906428Y-77727676D02*
X152001666Y-77822914D01*
X152001666Y-77822914D02*
X152096904Y-77870533D01*
X150573095Y-78584819D02*
X151144523Y-78584819D01*
X150858809Y-78584819D02*
X150858809Y-77584819D01*
X150858809Y-77584819D02*
X150954047Y-77727676D01*
X150954047Y-77727676D02*
X151049285Y-77822914D01*
X151049285Y-77822914D02*
X151144523Y-77870533D01*
X152477857Y-82634819D02*
X152811190Y-82158628D01*
X153049285Y-82634819D02*
X153049285Y-81634819D01*
X153049285Y-81634819D02*
X152668333Y-81634819D01*
X152668333Y-81634819D02*
X152573095Y-81682438D01*
X152573095Y-81682438D02*
X152525476Y-81730057D01*
X152525476Y-81730057D02*
X152477857Y-81825295D01*
X152477857Y-81825295D02*
X152477857Y-81968152D01*
X152477857Y-81968152D02*
X152525476Y-82063390D01*
X152525476Y-82063390D02*
X152573095Y-82111009D01*
X152573095Y-82111009D02*
X152668333Y-82158628D01*
X152668333Y-82158628D02*
X153049285Y-82158628D01*
X151525476Y-82634819D02*
X152096904Y-82634819D01*
X151811190Y-82634819D02*
X151811190Y-81634819D01*
X151811190Y-81634819D02*
X151906428Y-81777676D01*
X151906428Y-81777676D02*
X152001666Y-81872914D01*
X152001666Y-81872914D02*
X152096904Y-81920533D01*
X151144523Y-81730057D02*
X151096904Y-81682438D01*
X151096904Y-81682438D02*
X151001666Y-81634819D01*
X151001666Y-81634819D02*
X150763571Y-81634819D01*
X150763571Y-81634819D02*
X150668333Y-81682438D01*
X150668333Y-81682438D02*
X150620714Y-81730057D01*
X150620714Y-81730057D02*
X150573095Y-81825295D01*
X150573095Y-81825295D02*
X150573095Y-81920533D01*
X150573095Y-81920533D02*
X150620714Y-82063390D01*
X150620714Y-82063390D02*
X151192142Y-82634819D01*
X151192142Y-82634819D02*
X150573095Y-82634819D01*
D11*
%TO.C,U2*%
X151480395Y-75032500D02*
X151480395Y-63920000D01*
X151405395Y-63907500D02*
X138421383Y-63907038D01*
X138421395Y-63884500D02*
X138409606Y-75032500D01*
X138409606Y-75032500D02*
X151480395Y-75032500D01*
%TO.C,U1*%
X165680395Y-75032500D02*
X165680395Y-63920000D01*
X165605395Y-63907500D02*
X152621383Y-63907038D01*
X152621395Y-63884500D02*
X152609606Y-75032500D01*
X152609606Y-75032500D02*
X165680395Y-75032500D01*
%TO.C,R11*%
X148565000Y-79130000D02*
X148565000Y-79460000D01*
X155105000Y-79130000D02*
X148565000Y-79130000D01*
X155105000Y-79460000D02*
X155105000Y-79130000D01*
X155105000Y-81540000D02*
X155105000Y-81870000D01*
X148565000Y-81870000D02*
X148565000Y-81540000D01*
X155105000Y-81870000D02*
X148565000Y-81870000D01*
%TO.C,R12*%
X148565000Y-83180000D02*
X148565000Y-83510000D01*
X155105000Y-83180000D02*
X148565000Y-83180000D01*
X155105000Y-83510000D02*
X155105000Y-83180000D01*
X155105000Y-85590000D02*
X155105000Y-85920000D01*
X148565000Y-85920000D02*
X148565000Y-85590000D01*
X155105000Y-85920000D02*
X148565000Y-85920000D01*
%TD*%
M02*
