%TF.GenerationSoftware,KiCad,Pcbnew,9.0.0*%
%TF.CreationDate,2025-05-27T22:11:44-04:00*%
%TF.ProjectId,Pulse circuit,50756c73-6520-4636-9972-637569742e6b,rev?*%
%TF.SameCoordinates,Original*%
%TF.FileFunction,Legend,Top*%
%TF.FilePolarity,Positive*%
%FSLAX46Y46*%
G04 Gerber Fmt 4.6, Leading zero omitted, Abs format (unit mm)*
G04 Created by KiCad (PCBNEW 9.0.0) date 2025-05-27 22:11:44*
%MOMM*%
%LPD*%
G01*
G04 APERTURE LIST*
%ADD10C,0.150000*%
%ADD11C,0.120000*%
G04 APERTURE END LIST*
D10*
X160716667Y-124607200D02*
X160859524Y-124654819D01*
X160859524Y-124654819D02*
X161097619Y-124654819D01*
X161097619Y-124654819D02*
X161192857Y-124607200D01*
X161192857Y-124607200D02*
X161240476Y-124559580D01*
X161240476Y-124559580D02*
X161288095Y-124464342D01*
X161288095Y-124464342D02*
X161288095Y-124369104D01*
X161288095Y-124369104D02*
X161240476Y-124273866D01*
X161240476Y-124273866D02*
X161192857Y-124226247D01*
X161192857Y-124226247D02*
X161097619Y-124178628D01*
X161097619Y-124178628D02*
X160907143Y-124131009D01*
X160907143Y-124131009D02*
X160811905Y-124083390D01*
X160811905Y-124083390D02*
X160764286Y-124035771D01*
X160764286Y-124035771D02*
X160716667Y-123940533D01*
X160716667Y-123940533D02*
X160716667Y-123845295D01*
X160716667Y-123845295D02*
X160764286Y-123750057D01*
X160764286Y-123750057D02*
X160811905Y-123702438D01*
X160811905Y-123702438D02*
X160907143Y-123654819D01*
X160907143Y-123654819D02*
X161145238Y-123654819D01*
X161145238Y-123654819D02*
X161288095Y-123702438D01*
X161621429Y-123654819D02*
X161859524Y-124654819D01*
X161859524Y-124654819D02*
X162050000Y-123940533D01*
X162050000Y-123940533D02*
X162240476Y-124654819D01*
X162240476Y-124654819D02*
X162478572Y-123654819D01*
X163383333Y-124654819D02*
X162811905Y-124654819D01*
X163097619Y-124654819D02*
X163097619Y-123654819D01*
X163097619Y-123654819D02*
X163002381Y-123797676D01*
X163002381Y-123797676D02*
X162907143Y-123892914D01*
X162907143Y-123892914D02*
X162811905Y-123940533D01*
X151533333Y-129324819D02*
X151200000Y-128848628D01*
X150961905Y-129324819D02*
X150961905Y-128324819D01*
X150961905Y-128324819D02*
X151342857Y-128324819D01*
X151342857Y-128324819D02*
X151438095Y-128372438D01*
X151438095Y-128372438D02*
X151485714Y-128420057D01*
X151485714Y-128420057D02*
X151533333Y-128515295D01*
X151533333Y-128515295D02*
X151533333Y-128658152D01*
X151533333Y-128658152D02*
X151485714Y-128753390D01*
X151485714Y-128753390D02*
X151438095Y-128801009D01*
X151438095Y-128801009D02*
X151342857Y-128848628D01*
X151342857Y-128848628D02*
X150961905Y-128848628D01*
X152009524Y-129324819D02*
X152200000Y-129324819D01*
X152200000Y-129324819D02*
X152295238Y-129277200D01*
X152295238Y-129277200D02*
X152342857Y-129229580D01*
X152342857Y-129229580D02*
X152438095Y-129086723D01*
X152438095Y-129086723D02*
X152485714Y-128896247D01*
X152485714Y-128896247D02*
X152485714Y-128515295D01*
X152485714Y-128515295D02*
X152438095Y-128420057D01*
X152438095Y-128420057D02*
X152390476Y-128372438D01*
X152390476Y-128372438D02*
X152295238Y-128324819D01*
X152295238Y-128324819D02*
X152104762Y-128324819D01*
X152104762Y-128324819D02*
X152009524Y-128372438D01*
X152009524Y-128372438D02*
X151961905Y-128420057D01*
X151961905Y-128420057D02*
X151914286Y-128515295D01*
X151914286Y-128515295D02*
X151914286Y-128753390D01*
X151914286Y-128753390D02*
X151961905Y-128848628D01*
X151961905Y-128848628D02*
X152009524Y-128896247D01*
X152009524Y-128896247D02*
X152104762Y-128943866D01*
X152104762Y-128943866D02*
X152295238Y-128943866D01*
X152295238Y-128943866D02*
X152390476Y-128896247D01*
X152390476Y-128896247D02*
X152438095Y-128848628D01*
X152438095Y-128848628D02*
X152485714Y-128753390D01*
X141116666Y-128404819D02*
X141116666Y-129119104D01*
X141116666Y-129119104D02*
X141069047Y-129261961D01*
X141069047Y-129261961D02*
X140973809Y-129357200D01*
X140973809Y-129357200D02*
X140830952Y-129404819D01*
X140830952Y-129404819D02*
X140735714Y-129404819D01*
X142116666Y-129404819D02*
X141545238Y-129404819D01*
X141830952Y-129404819D02*
X141830952Y-128404819D01*
X141830952Y-128404819D02*
X141735714Y-128547676D01*
X141735714Y-128547676D02*
X141640476Y-128642914D01*
X141640476Y-128642914D02*
X141545238Y-128690533D01*
X135789819Y-109461904D02*
X136599342Y-109461904D01*
X136599342Y-109461904D02*
X136694580Y-109414285D01*
X136694580Y-109414285D02*
X136742200Y-109366666D01*
X136742200Y-109366666D02*
X136789819Y-109271428D01*
X136789819Y-109271428D02*
X136789819Y-109080952D01*
X136789819Y-109080952D02*
X136742200Y-108985714D01*
X136742200Y-108985714D02*
X136694580Y-108938095D01*
X136694580Y-108938095D02*
X136599342Y-108890476D01*
X136599342Y-108890476D02*
X135789819Y-108890476D01*
X135789819Y-108509523D02*
X135789819Y-107890476D01*
X135789819Y-107890476D02*
X136170771Y-108223809D01*
X136170771Y-108223809D02*
X136170771Y-108080952D01*
X136170771Y-108080952D02*
X136218390Y-107985714D01*
X136218390Y-107985714D02*
X136266009Y-107938095D01*
X136266009Y-107938095D02*
X136361247Y-107890476D01*
X136361247Y-107890476D02*
X136599342Y-107890476D01*
X136599342Y-107890476D02*
X136694580Y-107938095D01*
X136694580Y-107938095D02*
X136742200Y-107985714D01*
X136742200Y-107985714D02*
X136789819Y-108080952D01*
X136789819Y-108080952D02*
X136789819Y-108366666D01*
X136789819Y-108366666D02*
X136742200Y-108461904D01*
X136742200Y-108461904D02*
X136694580Y-108509523D01*
X150368333Y-60215009D02*
X150511190Y-60262628D01*
X150511190Y-60262628D02*
X150558809Y-60310247D01*
X150558809Y-60310247D02*
X150606428Y-60405485D01*
X150606428Y-60405485D02*
X150606428Y-60548342D01*
X150606428Y-60548342D02*
X150558809Y-60643580D01*
X150558809Y-60643580D02*
X150511190Y-60691200D01*
X150511190Y-60691200D02*
X150415952Y-60738819D01*
X150415952Y-60738819D02*
X150035000Y-60738819D01*
X150035000Y-60738819D02*
X150035000Y-59738819D01*
X150035000Y-59738819D02*
X150368333Y-59738819D01*
X150368333Y-59738819D02*
X150463571Y-59786438D01*
X150463571Y-59786438D02*
X150511190Y-59834057D01*
X150511190Y-59834057D02*
X150558809Y-59929295D01*
X150558809Y-59929295D02*
X150558809Y-60024533D01*
X150558809Y-60024533D02*
X150511190Y-60119771D01*
X150511190Y-60119771D02*
X150463571Y-60167390D01*
X150463571Y-60167390D02*
X150368333Y-60215009D01*
X150368333Y-60215009D02*
X150035000Y-60215009D01*
X151035000Y-60738819D02*
X151035000Y-60072152D01*
X151035000Y-60262628D02*
X151082619Y-60167390D01*
X151082619Y-60167390D02*
X151130238Y-60119771D01*
X151130238Y-60119771D02*
X151225476Y-60072152D01*
X151225476Y-60072152D02*
X151320714Y-60072152D01*
X152082619Y-60738819D02*
X152082619Y-59738819D01*
X152082619Y-60691200D02*
X151987381Y-60738819D01*
X151987381Y-60738819D02*
X151796905Y-60738819D01*
X151796905Y-60738819D02*
X151701667Y-60691200D01*
X151701667Y-60691200D02*
X151654048Y-60643580D01*
X151654048Y-60643580D02*
X151606429Y-60548342D01*
X151606429Y-60548342D02*
X151606429Y-60262628D01*
X151606429Y-60262628D02*
X151654048Y-60167390D01*
X151654048Y-60167390D02*
X151701667Y-60119771D01*
X151701667Y-60119771D02*
X151796905Y-60072152D01*
X151796905Y-60072152D02*
X151987381Y-60072152D01*
X151987381Y-60072152D02*
X152082619Y-60119771D01*
X153082619Y-60738819D02*
X152511191Y-60738819D01*
X152796905Y-60738819D02*
X152796905Y-59738819D01*
X152796905Y-59738819D02*
X152701667Y-59881676D01*
X152701667Y-59881676D02*
X152606429Y-59976914D01*
X152606429Y-59976914D02*
X152511191Y-60024533D01*
D11*
%TO.C,R9*%
X154970000Y-127870000D02*
X148430000Y-127870000D01*
X154970000Y-127540000D02*
X154970000Y-127870000D01*
X154970000Y-125460000D02*
X154970000Y-125130000D01*
X154970000Y-125130000D02*
X148430000Y-125130000D01*
X148430000Y-127870000D02*
X148430000Y-127540000D01*
X148430000Y-125130000D02*
X148430000Y-125460000D01*
%TO.C,Brd1*%
X165535000Y-75030000D02*
X138135000Y-75030000D01*
X165535000Y-47730000D02*
X165535000Y-75030000D01*
X164997000Y-67650000D02*
X164997000Y-51013000D01*
X164997000Y-51013000D02*
X164743000Y-51025000D01*
X161657000Y-67625000D02*
X164997000Y-67650000D01*
X161657000Y-67625000D02*
X138557000Y-67625000D01*
X161657000Y-51025000D02*
X164743000Y-51025000D01*
X156615000Y-50632000D02*
X146836000Y-50632000D01*
X156615000Y-48219000D02*
X156615000Y-50632000D01*
X146836000Y-48219000D02*
X156615000Y-48219000D01*
X146836000Y-48219000D02*
X146836000Y-50632000D01*
X138557000Y-67625000D02*
X138557000Y-51025000D01*
X138557000Y-51025000D02*
X161657000Y-51025000D01*
X138135000Y-75030000D02*
X138135000Y-47730000D01*
X138135000Y-47730000D02*
X165535000Y-47730000D01*
%TD*%
M02*
