%TF.GenerationSoftware,KiCad,Pcbnew,9.0.0*%
%TF.CreationDate,2025-05-27T22:11:44-04:00*%
%TF.ProjectId,Pulse circuit,50756c73-6520-4636-9972-637569742e6b,rev?*%
%TF.SameCoordinates,Original*%
%TF.FileFunction,Copper,L1,Top*%
%TF.FilePolarity,Positive*%
%FSLAX46Y46*%
G04 Gerber Fmt 4.6, Leading zero omitted, Abs format (unit mm)*
G04 Created by KiCad (PCBNEW 9.0.0) date 2025-05-27 22:11:44*
%MOMM*%
%LPD*%
G01*
G04 APERTURE LIST*
G04 Aperture macros list*
%AMRoundRect*
0 Rectangle with rounded corners*
0 $1 Rounding radius*
0 $2 $3 $4 $5 $6 $7 $8 $9 X,Y pos of 4 corners*
0 Add a 4 corners polygon primitive as box body*
4,1,4,$2,$3,$4,$5,$6,$7,$8,$9,$2,$3,0*
0 Add four circle primitives for the rounded corners*
1,1,$1+$1,$2,$3*
1,1,$1+$1,$4,$5*
1,1,$1+$1,$6,$7*
1,1,$1+$1,$8,$9*
0 Add four rect primitives between the rounded corners*
20,1,$1+$1,$2,$3,$4,$5,0*
20,1,$1+$1,$4,$5,$6,$7,0*
20,1,$1+$1,$6,$7,$8,$9,0*
20,1,$1+$1,$8,$9,$2,$3,0*%
G04 Aperture macros list end*
%TA.AperFunction,ComponentPad*%
%ADD10C,2.100000*%
%TD*%
%TA.AperFunction,ComponentPad*%
%ADD11RoundRect,0.250001X-0.799999X-0.799999X0.799999X-0.799999X0.799999X0.799999X-0.799999X0.799999X0*%
%TD*%
%TA.AperFunction,ComponentPad*%
%ADD12C,1.600000*%
%TD*%
%TA.AperFunction,ComponentPad*%
%ADD13O,1.600000X1.600000*%
%TD*%
%TA.AperFunction,ComponentPad*%
%ADD14RoundRect,0.250001X0.799999X0.799999X-0.799999X0.799999X-0.799999X-0.799999X0.799999X-0.799999X0*%
%TD*%
%TA.AperFunction,ComponentPad*%
%ADD15C,1.524000*%
%TD*%
%TA.AperFunction,ComponentPad*%
%ADD16O,1.600000X2.000000*%
%TD*%
%TA.AperFunction,Conductor*%
%ADD17C,0.200000*%
%TD*%
G04 APERTURE END LIST*
D10*
%TO.P,SW1,2,2*%
%TO.N,B*%
X164350000Y-126450000D03*
D11*
%TO.P,SW1,1,1*%
%TO.N,Net-(R9-Pad1)*%
X159750000Y-126450000D03*
%TD*%
D12*
%TO.P,R9,1*%
%TO.N,Net-(R9-Pad1)*%
X155510000Y-126500000D03*
D13*
%TO.P,R9,2*%
%TO.N,5V*%
X147890000Y-126500000D03*
%TD*%
D14*
%TO.P,J1,1,Pin_1*%
%TO.N,GND*%
X143750000Y-126700000D03*
D10*
%TO.P,J1,2,Pin_2*%
%TO.N,5V*%
X139150000Y-126700000D03*
%TD*%
D15*
%TO.P,U2,8*%
%TO.N,5V*%
X149945395Y-73282500D03*
%TO.P,U2,7,GND*%
%TO.N,SDA*%
X149945395Y-70742500D03*
%TO.P,U2,6,RD*%
%TO.N,SCL*%
X149945395Y-68202500D03*
%TO.P,U2,5,IRD*%
%TO.N,GND*%
X149945395Y-65662500D03*
%TO.P,U2,4,INT*%
%TO.N,INT5v*%
X139945395Y-65662500D03*
%TO.P,U2,3,SDA*%
%TO.N,IRD5v*%
X139945395Y-68202500D03*
%TO.P,U2,2,SCL*%
%TO.N,RD5v*%
X139945395Y-70742500D03*
%TO.P,U2,1,VIN*%
%TO.N,GND*%
X139945395Y-73282500D03*
%TD*%
%TO.P,U1,8*%
%TO.N,3V3*%
X164145395Y-73282500D03*
%TO.P,U1,7,GND*%
%TO.N,SDA*%
X164145395Y-70742500D03*
%TO.P,U1,6,RD*%
%TO.N,SCL*%
X164145395Y-68202500D03*
%TO.P,U1,5,IRD*%
%TO.N,GND*%
X164145395Y-65662500D03*
%TO.P,U1,4,INT*%
%TO.N,INT3v3*%
X154145395Y-65662500D03*
%TO.P,U1,3,SDA*%
%TO.N,IRD3v3*%
X154145395Y-68202500D03*
%TO.P,U1,2,SCL*%
%TO.N,RD3v3*%
X154145395Y-70742500D03*
%TO.P,U1,1,VIN*%
%TO.N,GND*%
X154145395Y-73282500D03*
%TD*%
D12*
%TO.P,R11,1*%
%TO.N,SCL*%
X155645000Y-80500000D03*
D13*
%TO.P,R11,2*%
%TO.N,3V3*%
X148025000Y-80500000D03*
%TD*%
D15*
%TO.P,U3,1,EN*%
%TO.N,unconnected-(U3-EN-Pad1)*%
X139135000Y-77580000D03*
%TO.P,U3,2,GPIO36_ADC-CH0_SENS-VP_RTC-GPIO0*%
%TO.N,unconnected-(U3-GPIO36_ADC-CH0_SENS-VP_RTC-GPIO0-Pad2)*%
X139135000Y-80120000D03*
%TO.P,U3,3,GPIO39_ADC1-CH3_SENS-VN_RTC-GPIO3*%
%TO.N,unconnected-(U3-GPIO39_ADC1-CH3_SENS-VN_RTC-GPIO3-Pad3)*%
X139135000Y-82660000D03*
%TO.P,U3,4,GPIO34_ADC1-CH6_RTC-GPIO4*%
%TO.N,RD5v*%
X139135000Y-85200000D03*
%TO.P,U3,5,GPIO35_ADC1-CH7_RTC-GPIO5*%
%TO.N,IRD5v*%
X139135000Y-87740000D03*
%TO.P,U3,6,GPIO32_ADC1-CH4_RTC-GPIO9*%
%TO.N,INT5v*%
X139135000Y-90280000D03*
%TO.P,U3,7,GPIO33_ADC1-CH5_RTC-GPIO8*%
%TO.N,RD3v3*%
X139135000Y-92820000D03*
%TO.P,U3,8,GPIO25_ADC2-CH8_DAC1_RTC-GPIO6*%
%TO.N,IRD3v3*%
X139135000Y-95360000D03*
%TO.P,U3,9,GPIO26_ADC2-CH9_DAC2_RTC-GPIO7*%
%TO.N,INT3v3*%
X139135000Y-97900000D03*
%TO.P,U3,10,GPIO27_ADC2-CH7_RTC-GPIO17*%
%TO.N,unconnected-(U3-GPIO27_ADC2-CH7_RTC-GPIO17-Pad10)*%
X139135000Y-100440000D03*
%TO.P,U3,11,GPIO14_ADC2-CH6_HSPI-CLK_RTC-GPIO16*%
%TO.N,unconnected-(U3-GPIO14_ADC2-CH6_HSPI-CLK_RTC-GPIO16-Pad11)*%
X139135000Y-102980000D03*
%TO.P,U3,12,GPIO12_ADC2-CH5_HSPI-MISO_RTC-GPIO15*%
%TO.N,B*%
X139135000Y-105520000D03*
%TO.P,U3,13,GPIO13_ADC2-CH4_HSPI-MOSI_RTC-GPIO14*%
%TO.N,unconnected-(U3-GPIO13_ADC2-CH4_HSPI-MOSI_RTC-GPIO14-Pad13)*%
X139135000Y-108060000D03*
%TO.P,U3,14,GPIO9_SHD/SD2*%
%TO.N,unconnected-(U3-GPIO9_SHD{slash}SD2-Pad14)*%
X139135000Y-110600000D03*
%TO.P,U3,15,GPIO10_SWP/SD3*%
%TO.N,unconnected-(U3-GPIO10_SWP{slash}SD3-Pad15)*%
X139135000Y-113140000D03*
%TO.P,U3,16,GPIO11_CSC/CMD*%
%TO.N,unconnected-(U3-GPIO11_CSC{slash}CMD-Pad16)*%
X139135000Y-115680000D03*
%TO.P,U3,17,GND*%
%TO.N,GND*%
X139135000Y-118220000D03*
%TO.P,U3,18,VIN*%
%TO.N,5V*%
X139135000Y-120760000D03*
%TO.P,U3,19,3V3*%
%TO.N,3V3*%
X164535000Y-120760000D03*
%TO.P,U3,20,GPIO6_SCK/CLK*%
%TO.N,unconnected-(U3-GPIO6_SCK{slash}CLK-Pad20)*%
X164535000Y-118220000D03*
%TO.P,U3,21,GPIO7_SDO/SD0*%
%TO.N,unconnected-(U3-GPIO7_SDO{slash}SD0-Pad21)*%
X164535000Y-115680000D03*
%TO.P,U3,22,GPIO8_SDI/SD1*%
%TO.N,unconnected-(U3-GPIO8_SDI{slash}SD1-Pad22)*%
X164535000Y-113140000D03*
%TO.P,U3,23,GPIO0_ADC2-CH1_RTC-GPIO11*%
%TO.N,unconnected-(U3-GPIO0_ADC2-CH1_RTC-GPIO11-Pad23)*%
X164535000Y-110600000D03*
%TO.P,U3,24,GPIO15_ADC2-CH3_HSPI-CS0_RTC-GPIO13*%
%TO.N,unconnected-(U3-GPIO15_ADC2-CH3_HSPI-CS0_RTC-GPIO13-Pad24)*%
X164535000Y-108060000D03*
%TO.P,U3,25,GPIO2_ADC2-CH2_RTC-GPIO12*%
%TO.N,unconnected-(U3-GPIO2_ADC2-CH2_RTC-GPIO12-Pad25)*%
X164535000Y-105520000D03*
%TO.P,U3,26,GPIO4_ADC2-CH0_RTC-GPIO10*%
%TO.N,unconnected-(U3-GPIO4_ADC2-CH0_RTC-GPIO10-Pad26)*%
X164535000Y-102980000D03*
%TO.P,U3,27,GPIO16_UART2-RX*%
%TO.N,unconnected-(U3-GPIO16_UART2-RX-Pad27)*%
X164535000Y-100440000D03*
%TO.P,U3,28,GPIO17_UART2-TX*%
%TO.N,unconnected-(U3-GPIO17_UART2-TX-Pad28)*%
X164535000Y-97900000D03*
%TO.P,U3,29,GPIO5_VSPI-CS0*%
%TO.N,unconnected-(U3-GPIO5_VSPI-CS0-Pad29)*%
X164535000Y-95360000D03*
%TO.P,U3,30,GPIO18_VSPI-CLK*%
%TO.N,unconnected-(U3-GPIO18_VSPI-CLK-Pad30)*%
X164535000Y-92820000D03*
%TO.P,U3,31,GPIO19_VSPI-MISO*%
%TO.N,unconnected-(U3-GPIO19_VSPI-MISO-Pad31)*%
X164535000Y-90280000D03*
%TO.P,U3,32,GPIO21_I2C-SDA*%
%TO.N,SDA*%
X164535000Y-87740000D03*
%TO.P,U3,33,GPIO3__UART0-RX*%
%TO.N,unconnected-(U3-GPIO3__UART0-RX-Pad33)*%
X164535000Y-85200000D03*
%TO.P,U3,34,GPIO1_UART0-TX*%
%TO.N,unconnected-(U3-GPIO1_UART0-TX-Pad34)*%
X164535000Y-82660000D03*
%TO.P,U3,35,GPIO22_I2C-SCL*%
%TO.N,SCL*%
X164535000Y-80120000D03*
%TO.P,U3,36,GPIO23_VSPI-MOSI*%
%TO.N,unconnected-(U3-GPIO23_VSPI-MOSI-Pad36)*%
X164535000Y-77580000D03*
%TD*%
D12*
%TO.P,R12,1*%
%TO.N,SDA*%
X155645000Y-84550000D03*
D13*
%TO.P,R12,2*%
%TO.N,3V3*%
X148025000Y-84550000D03*
%TD*%
D16*
%TO.P,Brd1,4,SDA*%
%TO.N,SDA*%
X155535000Y-49430000D03*
%TO.P,Brd1,3,SCL*%
%TO.N,SCL*%
X152995000Y-49430000D03*
%TO.P,Brd1,2,VCC*%
%TO.N,3V3*%
X150455000Y-49430000D03*
%TO.P,Brd1,1,GND*%
%TO.N,GND*%
X147915000Y-49430000D03*
%TD*%
D17*
%TO.N,Net-(R9-Pad1)*%
X159700000Y-126500000D02*
X159750000Y-126450000D01*
X155510000Y-126500000D02*
X159700000Y-126500000D01*
X159650000Y-126550000D02*
X159750000Y-126450000D01*
%TO.N,5V*%
X147890000Y-126550000D02*
X142460000Y-121120000D01*
X142460000Y-121120000D02*
X142460000Y-120760000D01*
X139135000Y-126685000D02*
X139150000Y-126700000D01*
X139135000Y-120760000D02*
X139135000Y-126685000D01*
%TO.N,3V3*%
X148025000Y-104185000D02*
X164600000Y-120760000D01*
X148025000Y-84550000D02*
X148025000Y-104185000D01*
X148025000Y-80500000D02*
X148025000Y-84550000D01*
%TO.N,5V*%
X142460000Y-118990000D02*
X143550000Y-117900000D01*
X142460000Y-120760000D02*
X142460000Y-118990000D01*
X139200000Y-120760000D02*
X142460000Y-120760000D01*
X140690000Y-120760000D02*
X139200000Y-120760000D01*
X143550000Y-79677895D02*
X143550000Y-117900000D01*
X149945395Y-73282500D02*
X143550000Y-79677895D01*
%TO.N,3V3*%
X159550000Y-69850000D02*
X162982500Y-73282500D01*
X159550000Y-64450000D02*
X159550000Y-69850000D01*
X150670000Y-55570000D02*
X159550000Y-64450000D01*
X162982500Y-73282500D02*
X164145395Y-73282500D01*
X150670000Y-49430000D02*
X150670000Y-55570000D01*
X148190000Y-80500000D02*
X152990000Y-75700000D01*
X163250000Y-75700000D02*
X164145395Y-74804605D01*
X152990000Y-75700000D02*
X163250000Y-75700000D01*
X164145395Y-74804605D02*
X164145395Y-73282500D01*
%TD*%
%TA.AperFunction,Conductor*%
%TO.N,GND*%
G36*
X166672539Y-46750185D02*
G01*
X166718294Y-46802989D01*
X166729500Y-46854500D01*
X166729500Y-129145500D01*
X166709815Y-129212539D01*
X166657011Y-129258294D01*
X166605500Y-129269500D01*
X137064500Y-129269500D01*
X136997461Y-129249815D01*
X136951706Y-129197011D01*
X136940500Y-129145500D01*
X136940500Y-126577973D01*
X137599500Y-126577973D01*
X137599500Y-126822026D01*
X137634845Y-127045187D01*
X137637679Y-127063076D01*
X137713096Y-127295185D01*
X137813363Y-127491971D01*
X137823896Y-127512642D01*
X137967339Y-127710076D01*
X137967343Y-127710081D01*
X138139918Y-127882656D01*
X138139923Y-127882660D01*
X138249568Y-127962321D01*
X138337361Y-128026106D01*
X138554815Y-128136904D01*
X138786924Y-128212321D01*
X139027973Y-128250500D01*
X139027974Y-128250500D01*
X139272026Y-128250500D01*
X139272027Y-128250500D01*
X139513076Y-128212321D01*
X139745185Y-128136904D01*
X139962639Y-128026106D01*
X140160083Y-127882655D01*
X140332655Y-127710083D01*
X140476106Y-127512639D01*
X140586904Y-127295185D01*
X140662321Y-127063076D01*
X140700500Y-126822027D01*
X140700500Y-126577973D01*
X140662321Y-126336924D01*
X140586904Y-126104815D01*
X140476106Y-125887361D01*
X140476105Y-125887359D01*
X140448972Y-125850014D01*
X142200000Y-125850014D01*
X142200000Y-126450000D01*
X143259252Y-126450000D01*
X143237482Y-126487708D01*
X143200000Y-126627591D01*
X143200000Y-126772409D01*
X143237482Y-126912292D01*
X143259252Y-126950000D01*
X142200000Y-126950000D01*
X142200000Y-127549985D01*
X142210493Y-127652689D01*
X142210494Y-127652696D01*
X142265641Y-127819118D01*
X142265643Y-127819123D01*
X142357684Y-127968344D01*
X142481655Y-128092315D01*
X142630876Y-128184356D01*
X142630881Y-128184358D01*
X142797303Y-128239505D01*
X142797310Y-128239506D01*
X142900014Y-128249999D01*
X142900027Y-128250000D01*
X143500000Y-128250000D01*
X143500000Y-127190747D01*
X143537708Y-127212518D01*
X143677591Y-127250000D01*
X143822409Y-127250000D01*
X143962292Y-127212518D01*
X144000000Y-127190747D01*
X144000000Y-128250000D01*
X144599973Y-128250000D01*
X144599985Y-128249999D01*
X144702689Y-128239506D01*
X144702696Y-128239505D01*
X144869118Y-128184358D01*
X144869123Y-128184356D01*
X145018344Y-128092315D01*
X145142315Y-127968344D01*
X145234356Y-127819123D01*
X145234358Y-127819118D01*
X145289505Y-127652696D01*
X145289506Y-127652689D01*
X145299999Y-127549985D01*
X145300000Y-127549972D01*
X145300000Y-126950000D01*
X144240748Y-126950000D01*
X144262518Y-126912292D01*
X144300000Y-126772409D01*
X144300000Y-126627591D01*
X144262518Y-126487708D01*
X144240748Y-126450000D01*
X145300000Y-126450000D01*
X145300000Y-125850027D01*
X145299999Y-125850014D01*
X145289506Y-125747310D01*
X145289505Y-125747303D01*
X145234358Y-125580881D01*
X145234356Y-125580876D01*
X145142315Y-125431655D01*
X145018344Y-125307684D01*
X144869123Y-125215643D01*
X144869118Y-125215641D01*
X144702696Y-125160494D01*
X144702689Y-125160493D01*
X144599985Y-125150000D01*
X144000000Y-125150000D01*
X144000000Y-126209252D01*
X143962292Y-126187482D01*
X143822409Y-126150000D01*
X143677591Y-126150000D01*
X143537708Y-126187482D01*
X143500000Y-126209252D01*
X143500000Y-125150000D01*
X142900014Y-125150000D01*
X142797310Y-125160493D01*
X142797303Y-125160494D01*
X142630881Y-125215641D01*
X142630876Y-125215643D01*
X142481655Y-125307684D01*
X142357684Y-125431655D01*
X142265643Y-125580876D01*
X142265641Y-125580881D01*
X142210494Y-125747303D01*
X142210493Y-125747310D01*
X142200000Y-125850014D01*
X140448972Y-125850014D01*
X140332660Y-125689923D01*
X140332656Y-125689918D01*
X140160081Y-125517343D01*
X140160076Y-125517339D01*
X139962643Y-125373896D01*
X139877791Y-125330662D01*
X139803204Y-125292658D01*
X139752409Y-125244685D01*
X139735500Y-125182174D01*
X139735500Y-121946730D01*
X139755185Y-121879691D01*
X139792866Y-121842808D01*
X139792752Y-121842651D01*
X139793823Y-121841872D01*
X139794715Y-121841000D01*
X139796690Y-121839789D01*
X139796689Y-121839789D01*
X139796694Y-121839787D01*
X139957464Y-121722981D01*
X140097981Y-121582464D01*
X140214787Y-121421694D01*
X140214789Y-121421689D01*
X140216000Y-121419715D01*
X140216656Y-121419121D01*
X140217651Y-121417752D01*
X140217938Y-121417960D01*
X140267810Y-121372837D01*
X140321730Y-121360500D01*
X140769057Y-121360500D01*
X141833863Y-121360500D01*
X141900902Y-121380185D01*
X141941250Y-121422500D01*
X141979477Y-121488712D01*
X141979481Y-121488717D01*
X142098349Y-121607585D01*
X142098355Y-121607590D01*
X146585694Y-126094930D01*
X146619179Y-126156253D01*
X146620486Y-126202009D01*
X146589500Y-126397648D01*
X146589500Y-126602351D01*
X146621522Y-126804534D01*
X146684781Y-126999223D01*
X146736385Y-127100500D01*
X146773320Y-127172989D01*
X146777715Y-127181613D01*
X146898028Y-127347213D01*
X147042786Y-127491971D01*
X147197749Y-127604556D01*
X147208390Y-127612287D01*
X147324607Y-127671503D01*
X147390776Y-127705218D01*
X147390778Y-127705218D01*
X147390781Y-127705220D01*
X147432130Y-127718655D01*
X147585465Y-127768477D01*
X147686557Y-127784488D01*
X147787648Y-127800500D01*
X147787649Y-127800500D01*
X147992351Y-127800500D01*
X147992352Y-127800500D01*
X148194534Y-127768477D01*
X148389219Y-127705220D01*
X148571610Y-127612287D01*
X148708765Y-127512639D01*
X148737213Y-127491971D01*
X148737215Y-127491968D01*
X148737219Y-127491966D01*
X148881966Y-127347219D01*
X148881968Y-127347215D01*
X148881971Y-127347213D01*
X148952599Y-127250000D01*
X149002287Y-127181610D01*
X149095220Y-126999219D01*
X149158477Y-126804534D01*
X149190500Y-126602352D01*
X149190500Y-126397648D01*
X154209500Y-126397648D01*
X154209500Y-126602351D01*
X154241522Y-126804534D01*
X154304781Y-126999223D01*
X154356385Y-127100500D01*
X154393320Y-127172989D01*
X154397715Y-127181613D01*
X154518028Y-127347213D01*
X154662786Y-127491971D01*
X154817749Y-127604556D01*
X154828390Y-127612287D01*
X154944607Y-127671503D01*
X155010776Y-127705218D01*
X155010778Y-127705218D01*
X155010781Y-127705220D01*
X155052130Y-127718655D01*
X155205465Y-127768477D01*
X155306557Y-127784488D01*
X155407648Y-127800500D01*
X155407649Y-127800500D01*
X155612351Y-127800500D01*
X155612352Y-127800500D01*
X155814534Y-127768477D01*
X156009219Y-127705220D01*
X156191610Y-127612287D01*
X156328765Y-127512639D01*
X156357213Y-127491971D01*
X156357215Y-127491968D01*
X156357219Y-127491966D01*
X156501966Y-127347219D01*
X156501968Y-127347215D01*
X156501971Y-127347213D01*
X156622284Y-127181614D01*
X156622285Y-127181613D01*
X156622287Y-127181610D01*
X156629117Y-127168204D01*
X156677091Y-127117409D01*
X156739602Y-127100500D01*
X158075500Y-127100500D01*
X158142539Y-127120185D01*
X158188294Y-127172989D01*
X158199500Y-127224500D01*
X158199500Y-127300015D01*
X158210000Y-127402795D01*
X158210001Y-127402797D01*
X158228983Y-127460081D01*
X158265186Y-127569335D01*
X158265187Y-127569337D01*
X158357286Y-127718651D01*
X158357289Y-127718655D01*
X158481344Y-127842710D01*
X158481348Y-127842713D01*
X158630662Y-127934812D01*
X158630664Y-127934813D01*
X158630666Y-127934814D01*
X158797203Y-127989999D01*
X158899992Y-128000500D01*
X158899997Y-128000500D01*
X160600003Y-128000500D01*
X160600008Y-128000500D01*
X160702797Y-127989999D01*
X160869334Y-127934814D01*
X161018655Y-127842711D01*
X161142711Y-127718655D01*
X161234814Y-127569334D01*
X161289999Y-127402797D01*
X161300500Y-127300008D01*
X161300500Y-126327973D01*
X162799500Y-126327973D01*
X162799500Y-126572027D01*
X162837679Y-126813076D01*
X162913096Y-127045185D01*
X163017454Y-127250000D01*
X163023896Y-127262642D01*
X163167339Y-127460076D01*
X163167343Y-127460081D01*
X163339918Y-127632656D01*
X163339923Y-127632660D01*
X163458286Y-127718655D01*
X163537361Y-127776106D01*
X163754815Y-127886904D01*
X163986924Y-127962321D01*
X164227973Y-128000500D01*
X164227974Y-128000500D01*
X164472026Y-128000500D01*
X164472027Y-128000500D01*
X164713076Y-127962321D01*
X164945185Y-127886904D01*
X165162639Y-127776106D01*
X165360083Y-127632655D01*
X165532655Y-127460083D01*
X165676106Y-127262639D01*
X165786904Y-127045185D01*
X165862321Y-126813076D01*
X165900500Y-126572027D01*
X165900500Y-126327973D01*
X165862321Y-126086924D01*
X165786904Y-125854815D01*
X165676106Y-125637361D01*
X165588908Y-125517343D01*
X165532660Y-125439923D01*
X165532656Y-125439918D01*
X165360081Y-125267343D01*
X165360076Y-125267339D01*
X165162642Y-125123896D01*
X165162641Y-125123895D01*
X165162639Y-125123894D01*
X164945185Y-125013096D01*
X164713076Y-124937679D01*
X164713074Y-124937678D01*
X164713072Y-124937678D01*
X164538320Y-124910000D01*
X164472027Y-124899500D01*
X164227973Y-124899500D01*
X164172093Y-124908350D01*
X163986927Y-124937678D01*
X163754812Y-125013097D01*
X163537357Y-125123896D01*
X163339923Y-125267339D01*
X163339918Y-125267343D01*
X163167343Y-125439918D01*
X163167339Y-125439923D01*
X163023896Y-125637357D01*
X162913097Y-125854812D01*
X162837678Y-126086927D01*
X162820487Y-126195466D01*
X162799500Y-126327973D01*
X161300500Y-126327973D01*
X161300500Y-125599992D01*
X161289999Y-125497203D01*
X161234814Y-125330666D01*
X161220638Y-125307684D01*
X161142713Y-125181348D01*
X161142710Y-125181344D01*
X161018655Y-125057289D01*
X161018651Y-125057286D01*
X160869337Y-124965187D01*
X160869335Y-124965186D01*
X160786065Y-124937593D01*
X160702797Y-124910001D01*
X160702795Y-124910000D01*
X160600015Y-124899500D01*
X160600008Y-124899500D01*
X158899992Y-124899500D01*
X158899984Y-124899500D01*
X158797204Y-124910000D01*
X158797203Y-124910001D01*
X158630664Y-124965186D01*
X158630662Y-124965187D01*
X158481348Y-125057286D01*
X158481344Y-125057289D01*
X158357289Y-125181344D01*
X158357286Y-125181348D01*
X158265187Y-125330662D01*
X158265186Y-125330664D01*
X158210001Y-125497203D01*
X158210000Y-125497204D01*
X158199500Y-125599984D01*
X158199500Y-125775500D01*
X158179815Y-125842539D01*
X158127011Y-125888294D01*
X158075500Y-125899500D01*
X156739602Y-125899500D01*
X156672563Y-125879815D01*
X156629117Y-125831795D01*
X156622284Y-125818385D01*
X156501971Y-125652786D01*
X156357213Y-125508028D01*
X156191613Y-125387715D01*
X156191612Y-125387714D01*
X156191610Y-125387713D01*
X156134653Y-125358691D01*
X156009223Y-125294781D01*
X155814534Y-125231522D01*
X155639995Y-125203878D01*
X155612352Y-125199500D01*
X155407648Y-125199500D01*
X155383329Y-125203351D01*
X155205465Y-125231522D01*
X155010776Y-125294781D01*
X154828386Y-125387715D01*
X154662786Y-125508028D01*
X154518028Y-125652786D01*
X154397715Y-125818386D01*
X154304781Y-126000776D01*
X154241522Y-126195465D01*
X154209500Y-126397648D01*
X149190500Y-126397648D01*
X149158477Y-126195466D01*
X149095220Y-126000781D01*
X149095218Y-126000778D01*
X149095218Y-126000776D01*
X149061503Y-125934607D01*
X149002287Y-125818390D01*
X148950640Y-125747303D01*
X148881971Y-125652786D01*
X148737213Y-125508028D01*
X148571613Y-125387715D01*
X148571612Y-125387714D01*
X148571610Y-125387713D01*
X148514653Y-125358691D01*
X148389223Y-125294781D01*
X148194534Y-125231522D01*
X148019995Y-125203878D01*
X147992352Y-125199500D01*
X147787648Y-125199500D01*
X147760004Y-125203878D01*
X147585466Y-125231522D01*
X147533416Y-125248434D01*
X147463575Y-125250428D01*
X147407419Y-125218183D01*
X143096819Y-120907583D01*
X143063334Y-120846260D01*
X143060500Y-120819902D01*
X143060500Y-119290097D01*
X143080185Y-119223058D01*
X143096819Y-119202416D01*
X143541022Y-118758213D01*
X144030520Y-118268716D01*
X144109577Y-118131784D01*
X144150501Y-117979057D01*
X144150501Y-117820942D01*
X144150501Y-117813347D01*
X144150500Y-117813329D01*
X144150500Y-79977991D01*
X144170185Y-79910952D01*
X144186814Y-79890315D01*
X149530868Y-74546260D01*
X149592189Y-74512777D01*
X149644916Y-74513341D01*
X149644947Y-74513151D01*
X149646238Y-74513355D01*
X149647494Y-74513369D01*
X149649747Y-74513909D01*
X149649759Y-74513913D01*
X149846034Y-74545000D01*
X149846035Y-74545000D01*
X150044755Y-74545000D01*
X150044756Y-74545000D01*
X150241031Y-74513913D01*
X150430027Y-74452505D01*
X150607089Y-74362287D01*
X150767859Y-74245481D01*
X150908376Y-74104964D01*
X151025182Y-73944194D01*
X151115400Y-73767132D01*
X151176808Y-73578136D01*
X151207895Y-73381861D01*
X151207895Y-73183139D01*
X151176808Y-72986864D01*
X151115400Y-72797868D01*
X151115400Y-72797867D01*
X151069430Y-72707649D01*
X151025182Y-72620806D01*
X150908376Y-72460036D01*
X150767859Y-72319519D01*
X150607089Y-72202713D01*
X150450613Y-72122984D01*
X150399818Y-72075010D01*
X150383023Y-72007189D01*
X150405560Y-71941054D01*
X150450613Y-71902015D01*
X150607089Y-71822287D01*
X150767859Y-71705481D01*
X150908376Y-71564964D01*
X151025182Y-71404194D01*
X151115400Y-71227132D01*
X151176808Y-71038136D01*
X151207895Y-70841861D01*
X151207895Y-70643139D01*
X151176808Y-70446864D01*
X151115400Y-70257868D01*
X151115400Y-70257867D01*
X151051216Y-70131900D01*
X151025182Y-70080806D01*
X150908376Y-69920036D01*
X150767859Y-69779519D01*
X150607089Y-69662713D01*
X150450613Y-69582984D01*
X150399818Y-69535010D01*
X150383023Y-69467189D01*
X150405560Y-69401054D01*
X150450613Y-69362015D01*
X150607089Y-69282287D01*
X150767859Y-69165481D01*
X150908376Y-69024964D01*
X151025182Y-68864194D01*
X151115400Y-68687132D01*
X151176808Y-68498136D01*
X151207895Y-68301861D01*
X151207895Y-68103139D01*
X151176808Y-67906864D01*
X151115400Y-67717868D01*
X151115400Y-67717867D01*
X151025181Y-67540805D01*
X150908376Y-67380036D01*
X150767859Y-67239519D01*
X150607089Y-67122713D01*
X150450062Y-67042703D01*
X150399267Y-66994729D01*
X150382472Y-66926908D01*
X150405009Y-66860773D01*
X150450064Y-66821734D01*
X150606817Y-66741864D01*
X150644111Y-66714768D01*
X149972843Y-66043500D01*
X149995555Y-66043500D01*
X150092456Y-66017536D01*
X150179335Y-65967376D01*
X150250271Y-65896440D01*
X150300431Y-65809561D01*
X150326395Y-65712660D01*
X150326395Y-65689947D01*
X150997663Y-66361215D01*
X151024757Y-66323925D01*
X151114937Y-66146937D01*
X151176319Y-65958023D01*
X151176319Y-65958020D01*
X151207395Y-65761821D01*
X151207395Y-65563178D01*
X151207389Y-65563139D01*
X152882895Y-65563139D01*
X152882895Y-65761860D01*
X152913982Y-65958137D01*
X152975388Y-66147129D01*
X152975389Y-66147132D01*
X153065471Y-66323925D01*
X153065608Y-66324194D01*
X153182414Y-66484964D01*
X153322931Y-66625481D01*
X153483701Y-66742287D01*
X153602227Y-66802679D01*
X153640175Y-66822015D01*
X153690971Y-66869990D01*
X153707766Y-66937811D01*
X153685228Y-67003946D01*
X153640175Y-67042985D01*
X153483700Y-67122713D01*
X153322928Y-67239521D01*
X153182416Y-67380033D01*
X153065608Y-67540805D01*
X152975389Y-67717867D01*
X152975388Y-67717870D01*
X152913982Y-67906862D01*
X152882895Y-68103139D01*
X152882895Y-68301860D01*
X152913982Y-68498137D01*
X152975388Y-68687129D01*
X152975389Y-68687132D01*
X153065608Y-68864194D01*
X153182414Y-69024964D01*
X153322931Y-69165481D01*
X153483701Y-69282287D01*
X153602227Y-69342679D01*
X153640175Y-69362015D01*
X153690971Y-69409990D01*
X153707766Y-69477811D01*
X153685228Y-69543946D01*
X153640175Y-69582985D01*
X153483700Y-69662713D01*
X153322928Y-69779521D01*
X153182416Y-69920033D01*
X153065608Y-70080805D01*
X152975389Y-70257867D01*
X152975388Y-70257870D01*
X152913982Y-70446862D01*
X152882895Y-70643139D01*
X152882895Y-70841860D01*
X152913982Y-71038137D01*
X152975388Y-71227129D01*
X152975389Y-71227132D01*
X153065608Y-71404194D01*
X153182414Y-71564964D01*
X153322931Y-71705481D01*
X153483701Y-71822287D01*
X153640727Y-71902296D01*
X153691522Y-71950269D01*
X153708317Y-72018090D01*
X153685780Y-72084225D01*
X153640727Y-72123264D01*
X153483961Y-72203141D01*
X153446678Y-72230229D01*
X153446677Y-72230230D01*
X154117949Y-72901500D01*
X154095235Y-72901500D01*
X153998334Y-72927464D01*
X153911455Y-72977624D01*
X153840519Y-73048560D01*
X153790359Y-73135439D01*
X153764395Y-73232340D01*
X153764395Y-73255052D01*
X153093125Y-72583782D01*
X153093124Y-72583783D01*
X153066038Y-72621064D01*
X152975852Y-72798062D01*
X152914470Y-72986976D01*
X152914470Y-72986979D01*
X152883395Y-73183178D01*
X152883395Y-73381821D01*
X152914470Y-73578020D01*
X152914470Y-73578023D01*
X152975852Y-73766937D01*
X153066036Y-73943932D01*
X153093125Y-73981215D01*
X153093126Y-73981216D01*
X153764395Y-73309947D01*
X153764395Y-73332660D01*
X153790359Y-73429561D01*
X153840519Y-73516440D01*
X153911455Y-73587376D01*
X153998334Y-73637536D01*
X154095235Y-73663500D01*
X154117948Y-73663500D01*
X153446678Y-74334768D01*
X153446678Y-74334769D01*
X153483962Y-74361858D01*
X153660957Y-74452042D01*
X153849872Y-74513424D01*
X154046074Y-74544500D01*
X154244716Y-74544500D01*
X154440915Y-74513424D01*
X154440918Y-74513424D01*
X154629832Y-74452042D01*
X154806820Y-74361862D01*
X154844111Y-74334768D01*
X154172843Y-73663500D01*
X154195555Y-73663500D01*
X154292456Y-73637536D01*
X154379335Y-73587376D01*
X154450271Y-73516440D01*
X154500431Y-73429561D01*
X154526395Y-73332660D01*
X154526395Y-73309947D01*
X155197663Y-73981215D01*
X155224757Y-73943925D01*
X155314937Y-73766937D01*
X155376319Y-73578023D01*
X155376319Y-73578020D01*
X155407395Y-73381821D01*
X155407395Y-73183178D01*
X155376319Y-72986979D01*
X155376319Y-72986976D01*
X155314937Y-72798062D01*
X155224753Y-72621067D01*
X155197663Y-72583783D01*
X154526395Y-73255051D01*
X154526395Y-73232340D01*
X154500431Y-73135439D01*
X154450271Y-73048560D01*
X154379335Y-72977624D01*
X154292456Y-72927464D01*
X154195555Y-72901500D01*
X154172842Y-72901500D01*
X154844111Y-72230231D01*
X154844110Y-72230230D01*
X154806827Y-72203141D01*
X154650063Y-72123265D01*
X154599267Y-72075290D01*
X154582472Y-72007469D01*
X154605010Y-71941334D01*
X154650062Y-71902296D01*
X154807089Y-71822287D01*
X154967859Y-71705481D01*
X155108376Y-71564964D01*
X155225182Y-71404194D01*
X155315400Y-71227132D01*
X155376808Y-71038136D01*
X155407895Y-70841861D01*
X155407895Y-70643139D01*
X155376808Y-70446864D01*
X155315400Y-70257868D01*
X155315400Y-70257867D01*
X155251216Y-70131900D01*
X155225182Y-70080806D01*
X155108376Y-69920036D01*
X154967859Y-69779519D01*
X154807089Y-69662713D01*
X154650613Y-69582984D01*
X154599818Y-69535010D01*
X154583023Y-69467189D01*
X154605560Y-69401054D01*
X154650613Y-69362015D01*
X154807089Y-69282287D01*
X154967859Y-69165481D01*
X155108376Y-69024964D01*
X155225182Y-68864194D01*
X155315400Y-68687132D01*
X155376808Y-68498136D01*
X155407895Y-68301861D01*
X155407895Y-68103139D01*
X155376808Y-67906864D01*
X155315400Y-67717868D01*
X155315400Y-67717867D01*
X155225181Y-67540805D01*
X155108376Y-67380036D01*
X154967859Y-67239519D01*
X154807089Y-67122713D01*
X154650613Y-67042984D01*
X154599818Y-66995010D01*
X154583023Y-66927189D01*
X154605560Y-66861054D01*
X154650613Y-66822015D01*
X154807089Y-66742287D01*
X154967859Y-66625481D01*
X155108376Y-66484964D01*
X155225182Y-66324194D01*
X155315400Y-66147132D01*
X155376808Y-65958136D01*
X155407895Y-65761861D01*
X155407895Y-65563139D01*
X155376808Y-65366864D01*
X155315400Y-65177868D01*
X155315400Y-65177867D01*
X155269430Y-65087649D01*
X155225182Y-65000806D01*
X155108376Y-64840036D01*
X154967859Y-64699519D01*
X154807089Y-64582713D01*
X154630027Y-64492494D01*
X154630024Y-64492493D01*
X154441032Y-64431087D01*
X154342893Y-64415543D01*
X154244756Y-64400000D01*
X154046034Y-64400000D01*
X153980609Y-64410362D01*
X153849757Y-64431087D01*
X153660765Y-64492493D01*
X153660762Y-64492494D01*
X153483700Y-64582713D01*
X153322928Y-64699521D01*
X153182416Y-64840033D01*
X153065608Y-65000805D01*
X152975389Y-65177867D01*
X152975388Y-65177870D01*
X152913982Y-65366862D01*
X152882895Y-65563139D01*
X151207389Y-65563139D01*
X151176319Y-65366979D01*
X151176319Y-65366976D01*
X151114937Y-65178062D01*
X151024753Y-65001067D01*
X150997663Y-64963783D01*
X150326395Y-65635051D01*
X150326395Y-65612340D01*
X150300431Y-65515439D01*
X150250271Y-65428560D01*
X150179335Y-65357624D01*
X150092456Y-65307464D01*
X149995555Y-65281500D01*
X149972842Y-65281500D01*
X150644111Y-64610231D01*
X150644110Y-64610230D01*
X150606827Y-64583141D01*
X150429832Y-64492957D01*
X150240917Y-64431575D01*
X150044716Y-64400500D01*
X149846074Y-64400500D01*
X149649874Y-64431575D01*
X149649871Y-64431575D01*
X149460957Y-64492957D01*
X149283959Y-64583143D01*
X149246678Y-64610229D01*
X149246677Y-64610230D01*
X149917949Y-65281500D01*
X149895235Y-65281500D01*
X149798334Y-65307464D01*
X149711455Y-65357624D01*
X149640519Y-65428560D01*
X149590359Y-65515439D01*
X149564395Y-65612340D01*
X149564395Y-65635052D01*
X148893125Y-64963782D01*
X148893124Y-64963783D01*
X148866038Y-65001064D01*
X148775852Y-65178062D01*
X148714470Y-65366976D01*
X148714470Y-65366979D01*
X148683395Y-65563178D01*
X148683395Y-65761821D01*
X148714470Y-65958020D01*
X148714470Y-65958023D01*
X148775852Y-66146937D01*
X148866036Y-66323932D01*
X148893125Y-66361215D01*
X148893126Y-66361216D01*
X149564395Y-65689947D01*
X149564395Y-65712660D01*
X149590359Y-65809561D01*
X149640519Y-65896440D01*
X149711455Y-65967376D01*
X149798334Y-66017536D01*
X149895235Y-66043500D01*
X149917948Y-66043500D01*
X149246678Y-66714768D01*
X149246678Y-66714769D01*
X149283962Y-66741858D01*
X149440726Y-66821734D01*
X149491522Y-66869709D01*
X149508317Y-66937530D01*
X149485779Y-67003665D01*
X149440726Y-67042704D01*
X149283700Y-67122713D01*
X149122928Y-67239521D01*
X148982416Y-67380033D01*
X148865608Y-67540805D01*
X148775389Y-67717867D01*
X148775388Y-67717870D01*
X148713982Y-67906862D01*
X148682895Y-68103139D01*
X148682895Y-68301860D01*
X148713982Y-68498137D01*
X148775388Y-68687129D01*
X148775389Y-68687132D01*
X148865608Y-68864194D01*
X148982414Y-69024964D01*
X149122931Y-69165481D01*
X149283701Y-69282287D01*
X149402227Y-69342679D01*
X149440175Y-69362015D01*
X149490971Y-69409990D01*
X149507766Y-69477811D01*
X149485228Y-69543946D01*
X149440175Y-69582985D01*
X149283700Y-69662713D01*
X149122928Y-69779521D01*
X148982416Y-69920033D01*
X148865608Y-70080805D01*
X148775389Y-70257867D01*
X148775388Y-70257870D01*
X148713982Y-70446862D01*
X148682895Y-70643139D01*
X148682895Y-70841860D01*
X148713982Y-71038137D01*
X148775388Y-71227129D01*
X148775389Y-71227132D01*
X148865608Y-71404194D01*
X148982414Y-71564964D01*
X149122931Y-71705481D01*
X149283701Y-71822287D01*
X149402227Y-71882679D01*
X149440175Y-71902015D01*
X149490971Y-71949990D01*
X149507766Y-72017811D01*
X149485228Y-72083946D01*
X149440175Y-72122985D01*
X149283700Y-72202713D01*
X149122928Y-72319521D01*
X148982416Y-72460033D01*
X148865608Y-72620805D01*
X148775389Y-72797867D01*
X148775388Y-72797870D01*
X148713982Y-72986862D01*
X148682895Y-73183139D01*
X148682895Y-73381860D01*
X148713981Y-73578136D01*
X148714526Y-73580403D01*
X148714481Y-73581290D01*
X148714744Y-73582948D01*
X148714395Y-73583003D01*
X148711033Y-73650185D01*
X148681632Y-73697026D01*
X143181286Y-79197373D01*
X143069481Y-79309177D01*
X143069477Y-79309182D01*
X143024139Y-79387712D01*
X143024139Y-79387713D01*
X142990423Y-79446109D01*
X142990423Y-79446110D01*
X142949499Y-79598838D01*
X142949499Y-79598840D01*
X142949499Y-79766941D01*
X142949500Y-79766954D01*
X142949500Y-117599902D01*
X142929815Y-117666941D01*
X142913181Y-117687583D01*
X142093200Y-118507563D01*
X142093189Y-118507574D01*
X142091286Y-118509478D01*
X142091284Y-118509480D01*
X141979480Y-118621284D01*
X141970091Y-118637547D01*
X141963300Y-118649308D01*
X141963300Y-118649309D01*
X141931472Y-118704437D01*
X141900423Y-118758215D01*
X141859499Y-118910943D01*
X141859499Y-118910945D01*
X141859499Y-119079046D01*
X141859500Y-119079059D01*
X141859500Y-120035500D01*
X141839815Y-120102539D01*
X141787011Y-120148294D01*
X141735500Y-120159500D01*
X140321730Y-120159500D01*
X140254691Y-120139815D01*
X140217808Y-120102133D01*
X140217651Y-120102248D01*
X140216872Y-120101176D01*
X140216000Y-120100285D01*
X140214789Y-120098309D01*
X140214786Y-120098305D01*
X140097981Y-119937536D01*
X139957464Y-119797019D01*
X139796694Y-119680213D01*
X139639667Y-119600203D01*
X139588872Y-119552229D01*
X139572077Y-119484408D01*
X139594614Y-119418273D01*
X139639669Y-119379234D01*
X139796422Y-119299364D01*
X139833716Y-119272268D01*
X139162448Y-118601000D01*
X139185160Y-118601000D01*
X139282061Y-118575036D01*
X139368940Y-118524876D01*
X139439876Y-118453940D01*
X139490036Y-118367061D01*
X139516000Y-118270160D01*
X139516000Y-118247447D01*
X140187268Y-118918715D01*
X140214362Y-118881425D01*
X140304542Y-118704437D01*
X140365924Y-118515523D01*
X140365924Y-118515520D01*
X140397000Y-118319321D01*
X140397000Y-118120678D01*
X140365924Y-117924479D01*
X140365924Y-117924476D01*
X140304542Y-117735562D01*
X140214358Y-117558567D01*
X140187268Y-117521283D01*
X139516000Y-118192551D01*
X139516000Y-118169840D01*
X139490036Y-118072939D01*
X139439876Y-117986060D01*
X139368940Y-117915124D01*
X139282061Y-117864964D01*
X139185160Y-117839000D01*
X139162447Y-117839000D01*
X139833716Y-117167731D01*
X139833715Y-117167730D01*
X139796432Y-117140641D01*
X139639668Y-117060765D01*
X139588872Y-117012790D01*
X139572077Y-116944969D01*
X139594615Y-116878834D01*
X139639667Y-116839796D01*
X139796694Y-116759787D01*
X139957464Y-116642981D01*
X140097981Y-116502464D01*
X140214787Y-116341694D01*
X140305005Y-116164632D01*
X140366413Y-115975636D01*
X140397500Y-115779361D01*
X140397500Y-115580639D01*
X140366413Y-115384364D01*
X140305005Y-115195368D01*
X140305005Y-115195367D01*
X140214786Y-115018305D01*
X140097981Y-114857536D01*
X139957464Y-114717019D01*
X139796694Y-114600213D01*
X139640218Y-114520484D01*
X139589423Y-114472510D01*
X139572628Y-114404689D01*
X139595165Y-114338554D01*
X139640218Y-114299515D01*
X139796694Y-114219787D01*
X139957464Y-114102981D01*
X140097981Y-113962464D01*
X140214787Y-113801694D01*
X140305005Y-113624632D01*
X140366413Y-113435636D01*
X140397500Y-113239361D01*
X140397500Y-113040639D01*
X140366413Y-112844364D01*
X140305005Y-112655368D01*
X140305005Y-112655367D01*
X140214786Y-112478305D01*
X140097981Y-112317536D01*
X139957464Y-112177019D01*
X139796694Y-112060213D01*
X139640218Y-111980484D01*
X139589423Y-111932510D01*
X139572628Y-111864689D01*
X139595165Y-111798554D01*
X139640218Y-111759515D01*
X139796694Y-111679787D01*
X139957464Y-111562981D01*
X140097981Y-111422464D01*
X140214787Y-111261694D01*
X140305005Y-111084632D01*
X140366413Y-110895636D01*
X140397500Y-110699361D01*
X140397500Y-110500639D01*
X140366413Y-110304364D01*
X140305005Y-110115368D01*
X140305005Y-110115367D01*
X140214786Y-109938305D01*
X140097981Y-109777536D01*
X139957464Y-109637019D01*
X139796694Y-109520213D01*
X139640218Y-109440484D01*
X139589423Y-109392510D01*
X139572628Y-109324689D01*
X139595165Y-109258554D01*
X139640218Y-109219515D01*
X139796694Y-109139787D01*
X139957464Y-109022981D01*
X140097981Y-108882464D01*
X140214787Y-108721694D01*
X140305005Y-108544632D01*
X140366413Y-108355636D01*
X140397500Y-108159361D01*
X140397500Y-107960639D01*
X140366413Y-107764364D01*
X140305005Y-107575368D01*
X140305005Y-107575367D01*
X140214786Y-107398305D01*
X140097981Y-107237536D01*
X139957464Y-107097019D01*
X139796694Y-106980213D01*
X139640218Y-106900484D01*
X139589423Y-106852510D01*
X139572628Y-106784689D01*
X139595165Y-106718554D01*
X139640218Y-106679515D01*
X139796694Y-106599787D01*
X139957464Y-106482981D01*
X140097981Y-106342464D01*
X140214787Y-106181694D01*
X140305005Y-106004632D01*
X140366413Y-105815636D01*
X140397500Y-105619361D01*
X140397500Y-105420639D01*
X140366413Y-105224364D01*
X140305005Y-105035368D01*
X140305005Y-105035367D01*
X140214786Y-104858305D01*
X140097981Y-104697536D01*
X139957464Y-104557019D01*
X139796694Y-104440213D01*
X139640218Y-104360484D01*
X139589423Y-104312510D01*
X139572628Y-104244689D01*
X139595165Y-104178554D01*
X139640218Y-104139515D01*
X139796694Y-104059787D01*
X139957464Y-103942981D01*
X140097981Y-103802464D01*
X140214787Y-103641694D01*
X140305005Y-103464632D01*
X140366413Y-103275636D01*
X140397500Y-103079361D01*
X140397500Y-102880639D01*
X140366413Y-102684364D01*
X140305005Y-102495368D01*
X140305005Y-102495367D01*
X140214786Y-102318305D01*
X140097981Y-102157536D01*
X139957464Y-102017019D01*
X139796694Y-101900213D01*
X139640218Y-101820484D01*
X139589423Y-101772510D01*
X139572628Y-101704689D01*
X139595165Y-101638554D01*
X139640218Y-101599515D01*
X139796694Y-101519787D01*
X139957464Y-101402981D01*
X140097981Y-101262464D01*
X140214787Y-101101694D01*
X140305005Y-100924632D01*
X140366413Y-100735636D01*
X140397500Y-100539361D01*
X140397500Y-100340639D01*
X140366413Y-100144364D01*
X140305005Y-99955368D01*
X140305005Y-99955367D01*
X140214786Y-99778305D01*
X140097981Y-99617536D01*
X139957464Y-99477019D01*
X139796694Y-99360213D01*
X139640218Y-99280484D01*
X139589423Y-99232510D01*
X139572628Y-99164689D01*
X139595165Y-99098554D01*
X139640218Y-99059515D01*
X139796694Y-98979787D01*
X139957464Y-98862981D01*
X140097981Y-98722464D01*
X140214787Y-98561694D01*
X140305005Y-98384632D01*
X140366413Y-98195636D01*
X140397500Y-97999361D01*
X140397500Y-97800639D01*
X140366413Y-97604364D01*
X140305005Y-97415368D01*
X140305005Y-97415367D01*
X140214786Y-97238305D01*
X140097981Y-97077536D01*
X139957464Y-96937019D01*
X139796694Y-96820213D01*
X139640218Y-96740484D01*
X139589423Y-96692510D01*
X139572628Y-96624689D01*
X139595165Y-96558554D01*
X139640218Y-96519515D01*
X139796694Y-96439787D01*
X139957464Y-96322981D01*
X140097981Y-96182464D01*
X140214787Y-96021694D01*
X140305005Y-95844632D01*
X140366413Y-95655636D01*
X140397500Y-95459361D01*
X140397500Y-95260639D01*
X140366413Y-95064364D01*
X140305005Y-94875368D01*
X140305005Y-94875367D01*
X140214786Y-94698305D01*
X140097981Y-94537536D01*
X139957464Y-94397019D01*
X139796694Y-94280213D01*
X139640218Y-94200484D01*
X139589423Y-94152510D01*
X139572628Y-94084689D01*
X139595165Y-94018554D01*
X139640218Y-93979515D01*
X139796694Y-93899787D01*
X139957464Y-93782981D01*
X140097981Y-93642464D01*
X140214787Y-93481694D01*
X140305005Y-93304632D01*
X140366413Y-93115636D01*
X140397500Y-92919361D01*
X140397500Y-92720639D01*
X140366413Y-92524364D01*
X140305005Y-92335368D01*
X140305005Y-92335367D01*
X140214786Y-92158305D01*
X140097981Y-91997536D01*
X139957464Y-91857019D01*
X139796694Y-91740213D01*
X139640218Y-91660484D01*
X139589423Y-91612510D01*
X139572628Y-91544689D01*
X139595165Y-91478554D01*
X139640218Y-91439515D01*
X139796694Y-91359787D01*
X139957464Y-91242981D01*
X140097981Y-91102464D01*
X140214787Y-90941694D01*
X140305005Y-90764632D01*
X140366413Y-90575636D01*
X140397500Y-90379361D01*
X140397500Y-90180639D01*
X140366413Y-89984364D01*
X140305005Y-89795368D01*
X140305005Y-89795367D01*
X140214786Y-89618305D01*
X140097981Y-89457536D01*
X139957464Y-89317019D01*
X139796694Y-89200213D01*
X139640218Y-89120484D01*
X139589423Y-89072510D01*
X139572628Y-89004689D01*
X139595165Y-88938554D01*
X139640218Y-88899515D01*
X139796694Y-88819787D01*
X139957464Y-88702981D01*
X140097981Y-88562464D01*
X140214787Y-88401694D01*
X140305005Y-88224632D01*
X140366413Y-88035636D01*
X140397500Y-87839361D01*
X140397500Y-87640639D01*
X140366413Y-87444364D01*
X140305005Y-87255368D01*
X140305005Y-87255367D01*
X140214786Y-87078305D01*
X140097981Y-86917536D01*
X139957464Y-86777019D01*
X139796694Y-86660213D01*
X139640218Y-86580484D01*
X139589423Y-86532510D01*
X139572628Y-86464689D01*
X139595165Y-86398554D01*
X139640218Y-86359515D01*
X139796694Y-86279787D01*
X139957464Y-86162981D01*
X140097981Y-86022464D01*
X140214787Y-85861694D01*
X140305005Y-85684632D01*
X140366413Y-85495636D01*
X140397500Y-85299361D01*
X140397500Y-85100639D01*
X140366413Y-84904364D01*
X140305005Y-84715368D01*
X140305005Y-84715367D01*
X140214786Y-84538305D01*
X140148920Y-84447648D01*
X140097981Y-84377536D01*
X139957464Y-84237019D01*
X139796694Y-84120213D01*
X139640218Y-84040484D01*
X139589423Y-83992510D01*
X139572628Y-83924689D01*
X139595165Y-83858554D01*
X139640218Y-83819515D01*
X139796694Y-83739787D01*
X139957464Y-83622981D01*
X140097981Y-83482464D01*
X140214787Y-83321694D01*
X140305005Y-83144632D01*
X140366413Y-82955636D01*
X140397500Y-82759361D01*
X140397500Y-82560639D01*
X140366413Y-82364364D01*
X140305005Y-82175368D01*
X140305005Y-82175367D01*
X140214786Y-81998305D01*
X140097981Y-81837536D01*
X139957464Y-81697019D01*
X139796694Y-81580213D01*
X139640218Y-81500484D01*
X139589423Y-81452510D01*
X139572628Y-81384689D01*
X139595165Y-81318554D01*
X139640218Y-81279515D01*
X139796694Y-81199787D01*
X139957464Y-81082981D01*
X140097981Y-80942464D01*
X140214787Y-80781694D01*
X140305005Y-80604632D01*
X140366413Y-80415636D01*
X140397500Y-80219361D01*
X140397500Y-80020639D01*
X140366413Y-79824364D01*
X140335709Y-79729866D01*
X140305006Y-79635370D01*
X140305005Y-79635367D01*
X140214786Y-79458305D01*
X140205925Y-79446109D01*
X140097981Y-79297536D01*
X139957464Y-79157019D01*
X139796694Y-79040213D01*
X139640218Y-78960484D01*
X139589423Y-78912510D01*
X139572628Y-78844689D01*
X139595165Y-78778554D01*
X139640218Y-78739515D01*
X139796694Y-78659787D01*
X139957464Y-78542981D01*
X140097981Y-78402464D01*
X140214787Y-78241694D01*
X140305005Y-78064632D01*
X140366413Y-77875636D01*
X140397500Y-77679361D01*
X140397500Y-77480639D01*
X140366413Y-77284364D01*
X140305005Y-77095368D01*
X140305005Y-77095367D01*
X140214786Y-76918305D01*
X140097981Y-76757536D01*
X139957464Y-76617019D01*
X139796694Y-76500213D01*
X139619632Y-76409994D01*
X139619629Y-76409993D01*
X139430637Y-76348587D01*
X139332498Y-76333043D01*
X139234361Y-76317500D01*
X139035639Y-76317500D01*
X138970214Y-76327862D01*
X138839362Y-76348587D01*
X138650370Y-76409993D01*
X138650367Y-76409994D01*
X138473305Y-76500213D01*
X138312533Y-76617021D01*
X138172021Y-76757533D01*
X138055213Y-76918305D01*
X137964994Y-77095367D01*
X137964993Y-77095370D01*
X137903587Y-77284362D01*
X137872500Y-77480639D01*
X137872500Y-77679360D01*
X137903587Y-77875637D01*
X137964993Y-78064629D01*
X137964994Y-78064632D01*
X138055213Y-78241694D01*
X138172019Y-78402464D01*
X138312536Y-78542981D01*
X138473306Y-78659787D01*
X138591832Y-78720179D01*
X138629780Y-78739515D01*
X138680576Y-78787490D01*
X138697371Y-78855311D01*
X138674833Y-78921446D01*
X138629780Y-78960485D01*
X138473305Y-79040213D01*
X138312533Y-79157021D01*
X138172021Y-79297533D01*
X138055213Y-79458305D01*
X137964994Y-79635367D01*
X137964993Y-79635370D01*
X137903587Y-79824362D01*
X137872500Y-80020639D01*
X137872500Y-80219360D01*
X137903587Y-80415637D01*
X137964993Y-80604629D01*
X137964994Y-80604632D01*
X138055213Y-80781694D01*
X138172019Y-80942464D01*
X138312536Y-81082981D01*
X138473306Y-81199787D01*
X138591832Y-81260179D01*
X138629780Y-81279515D01*
X138680576Y-81327490D01*
X138697371Y-81395311D01*
X138674833Y-81461446D01*
X138629780Y-81500485D01*
X138473305Y-81580213D01*
X138312533Y-81697021D01*
X138172021Y-81837533D01*
X138055213Y-81998305D01*
X137964994Y-82175367D01*
X137964993Y-82175370D01*
X137903587Y-82364362D01*
X137872500Y-82560639D01*
X137872500Y-82759360D01*
X137903587Y-82955637D01*
X137964993Y-83144629D01*
X137964994Y-83144632D01*
X138018428Y-83249500D01*
X138055213Y-83321694D01*
X138172019Y-83482464D01*
X138312536Y-83622981D01*
X138473306Y-83739787D01*
X138591832Y-83800179D01*
X138629780Y-83819515D01*
X138680576Y-83867490D01*
X138697371Y-83935311D01*
X138674833Y-84001446D01*
X138629780Y-84040485D01*
X138473305Y-84120213D01*
X138312533Y-84237021D01*
X138172021Y-84377533D01*
X138055213Y-84538305D01*
X137964994Y-84715367D01*
X137964993Y-84715370D01*
X137903587Y-84904362D01*
X137872500Y-85100639D01*
X137872500Y-85299360D01*
X137903587Y-85495637D01*
X137964993Y-85684629D01*
X137964994Y-85684632D01*
X138049509Y-85850500D01*
X138055213Y-85861694D01*
X138172019Y-86022464D01*
X138312536Y-86162981D01*
X138473306Y-86279787D01*
X138591832Y-86340179D01*
X138629780Y-86359515D01*
X138680576Y-86407490D01*
X138697371Y-86475311D01*
X138674833Y-86541446D01*
X138629780Y-86580485D01*
X138473305Y-86660213D01*
X138312533Y-86777021D01*
X138172021Y-86917533D01*
X138055213Y-87078305D01*
X137964994Y-87255367D01*
X137964993Y-87255370D01*
X137903587Y-87444362D01*
X137872500Y-87640639D01*
X137872500Y-87839360D01*
X137903587Y-88035637D01*
X137964993Y-88224629D01*
X137964994Y-88224632D01*
X138055213Y-88401694D01*
X138172019Y-88562464D01*
X138312536Y-88702981D01*
X138473306Y-88819787D01*
X138591832Y-88880179D01*
X138629780Y-88899515D01*
X138680576Y-88947490D01*
X138697371Y-89015311D01*
X138674833Y-89081446D01*
X138629780Y-89120485D01*
X138473305Y-89200213D01*
X138312533Y-89317021D01*
X138172021Y-89457533D01*
X138055213Y-89618305D01*
X137964994Y-89795367D01*
X137964993Y-89795370D01*
X137903587Y-89984362D01*
X137872500Y-90180639D01*
X137872500Y-90379360D01*
X137903587Y-90575637D01*
X137964993Y-90764629D01*
X137964994Y-90764632D01*
X138055213Y-90941694D01*
X138172019Y-91102464D01*
X138312536Y-91242981D01*
X138473306Y-91359787D01*
X138591832Y-91420179D01*
X138629780Y-91439515D01*
X138680576Y-91487490D01*
X138697371Y-91555311D01*
X138674833Y-91621446D01*
X138629780Y-91660485D01*
X138473305Y-91740213D01*
X138312533Y-91857021D01*
X138172021Y-91997533D01*
X138055213Y-92158305D01*
X137964994Y-92335367D01*
X137964993Y-92335370D01*
X137903587Y-92524362D01*
X137872500Y-92720639D01*
X137872500Y-92919360D01*
X137903587Y-93115637D01*
X137964993Y-93304629D01*
X137964994Y-93304632D01*
X138055213Y-93481694D01*
X138172019Y-93642464D01*
X138312536Y-93782981D01*
X138473306Y-93899787D01*
X138591832Y-93960179D01*
X138629780Y-93979515D01*
X138680576Y-94027490D01*
X138697371Y-94095311D01*
X138674833Y-94161446D01*
X138629780Y-94200485D01*
X138473305Y-94280213D01*
X138312533Y-94397021D01*
X138172021Y-94537533D01*
X138055213Y-94698305D01*
X137964994Y-94875367D01*
X137964993Y-94875370D01*
X137903587Y-95064362D01*
X137872500Y-95260639D01*
X137872500Y-95459360D01*
X137903587Y-95655637D01*
X137964993Y-95844629D01*
X137964994Y-95844632D01*
X138055213Y-96021694D01*
X138172019Y-96182464D01*
X138312536Y-96322981D01*
X138473306Y-96439787D01*
X138591832Y-96500179D01*
X138629780Y-96519515D01*
X138680576Y-96567490D01*
X138697371Y-96635311D01*
X138674833Y-96701446D01*
X138629780Y-96740485D01*
X138473305Y-96820213D01*
X138312533Y-96937021D01*
X138172021Y-97077533D01*
X138055213Y-97238305D01*
X137964994Y-97415367D01*
X137964993Y-97415370D01*
X137903587Y-97604362D01*
X137872500Y-97800639D01*
X137872500Y-97999360D01*
X137903587Y-98195637D01*
X137964993Y-98384629D01*
X137964994Y-98384632D01*
X138055213Y-98561694D01*
X138172019Y-98722464D01*
X138312536Y-98862981D01*
X138473306Y-98979787D01*
X138591832Y-99040179D01*
X138629780Y-99059515D01*
X138680576Y-99107490D01*
X138697371Y-99175311D01*
X138674833Y-99241446D01*
X138629780Y-99280485D01*
X138473305Y-99360213D01*
X138312533Y-99477021D01*
X138172021Y-99617533D01*
X138055213Y-99778305D01*
X137964994Y-99955367D01*
X137964993Y-99955370D01*
X137903587Y-100144362D01*
X137872500Y-100340639D01*
X137872500Y-100539360D01*
X137903587Y-100735637D01*
X137964993Y-100924629D01*
X137964994Y-100924632D01*
X138055213Y-101101694D01*
X138172019Y-101262464D01*
X138312536Y-101402981D01*
X138473306Y-101519787D01*
X138591832Y-101580179D01*
X138629780Y-101599515D01*
X138680576Y-101647490D01*
X138697371Y-101715311D01*
X138674833Y-101781446D01*
X138629780Y-101820485D01*
X138473305Y-101900213D01*
X138312533Y-102017021D01*
X138172021Y-102157533D01*
X138055213Y-102318305D01*
X137964994Y-102495367D01*
X137964993Y-102495370D01*
X137903587Y-102684362D01*
X137872500Y-102880639D01*
X137872500Y-103079360D01*
X137903587Y-103275637D01*
X137964993Y-103464629D01*
X137964994Y-103464632D01*
X138055213Y-103641694D01*
X138172019Y-103802464D01*
X138312536Y-103942981D01*
X138473306Y-104059787D01*
X138548951Y-104098330D01*
X138629780Y-104139515D01*
X138680576Y-104187490D01*
X138697371Y-104255311D01*
X138674833Y-104321446D01*
X138629780Y-104360485D01*
X138473305Y-104440213D01*
X138312533Y-104557021D01*
X138172021Y-104697533D01*
X138055213Y-104858305D01*
X137964994Y-105035367D01*
X137964993Y-105035370D01*
X137903587Y-105224362D01*
X137872500Y-105420639D01*
X137872500Y-105619360D01*
X137903587Y-105815637D01*
X137964993Y-106004629D01*
X137964994Y-106004632D01*
X138055213Y-106181694D01*
X138172019Y-106342464D01*
X138312536Y-106482981D01*
X138473306Y-106599787D01*
X138591832Y-106660179D01*
X138629780Y-106679515D01*
X138680576Y-106727490D01*
X138697371Y-106795311D01*
X138674833Y-106861446D01*
X138629780Y-106900485D01*
X138473305Y-106980213D01*
X138312533Y-107097021D01*
X138172021Y-107237533D01*
X138055213Y-107398305D01*
X137964994Y-107575367D01*
X137964993Y-107575370D01*
X137903587Y-107764362D01*
X137872500Y-107960639D01*
X137872500Y-108159360D01*
X137903587Y-108355637D01*
X137964993Y-108544629D01*
X137964994Y-108544632D01*
X138055213Y-108721694D01*
X138172019Y-108882464D01*
X138312536Y-109022981D01*
X138473306Y-109139787D01*
X138591832Y-109200179D01*
X138629780Y-109219515D01*
X138680576Y-109267490D01*
X138697371Y-109335311D01*
X138674833Y-109401446D01*
X138629780Y-109440485D01*
X138473305Y-109520213D01*
X138312533Y-109637021D01*
X138172021Y-109777533D01*
X138055213Y-109938305D01*
X137964994Y-110115367D01*
X137964993Y-110115370D01*
X137903587Y-110304362D01*
X137872500Y-110500639D01*
X137872500Y-110699360D01*
X137903587Y-110895637D01*
X137964993Y-111084629D01*
X137964994Y-111084632D01*
X138055213Y-111261694D01*
X138172019Y-111422464D01*
X138312536Y-111562981D01*
X138473306Y-111679787D01*
X138591832Y-111740179D01*
X138629780Y-111759515D01*
X138680576Y-111807490D01*
X138697371Y-111875311D01*
X138674833Y-111941446D01*
X138629780Y-111980485D01*
X138473305Y-112060213D01*
X138312533Y-112177021D01*
X138172021Y-112317533D01*
X138055213Y-112478305D01*
X137964994Y-112655367D01*
X137964993Y-112655370D01*
X137903587Y-112844362D01*
X137872500Y-113040639D01*
X137872500Y-113239360D01*
X137903587Y-113435637D01*
X137964993Y-113624629D01*
X137964994Y-113624632D01*
X138055213Y-113801694D01*
X138172019Y-113962464D01*
X138312536Y-114102981D01*
X138473306Y-114219787D01*
X138591832Y-114280179D01*
X138629780Y-114299515D01*
X138680576Y-114347490D01*
X138697371Y-114415311D01*
X138674833Y-114481446D01*
X138629780Y-114520485D01*
X138473305Y-114600213D01*
X138312533Y-114717021D01*
X138172021Y-114857533D01*
X138055213Y-115018305D01*
X137964994Y-115195367D01*
X137964993Y-115195370D01*
X137903587Y-115384362D01*
X137872500Y-115580639D01*
X137872500Y-115779360D01*
X137903587Y-115975637D01*
X137964993Y-116164629D01*
X137964994Y-116164632D01*
X138055213Y-116341694D01*
X138172019Y-116502464D01*
X138312536Y-116642981D01*
X138473306Y-116759787D01*
X138630332Y-116839796D01*
X138681127Y-116887769D01*
X138697922Y-116955590D01*
X138675385Y-117021725D01*
X138630332Y-117060764D01*
X138473566Y-117140641D01*
X138436283Y-117167729D01*
X138436282Y-117167730D01*
X139107554Y-117839000D01*
X139084840Y-117839000D01*
X138987939Y-117864964D01*
X138901060Y-117915124D01*
X138830124Y-117986060D01*
X138779964Y-118072939D01*
X138754000Y-118169840D01*
X138754000Y-118192552D01*
X138082730Y-117521282D01*
X138082729Y-117521283D01*
X138055643Y-117558564D01*
X137965457Y-117735562D01*
X137904075Y-117924476D01*
X137904075Y-117924479D01*
X137873000Y-118120678D01*
X137873000Y-118319321D01*
X137904075Y-118515520D01*
X137904075Y-118515523D01*
X137965457Y-118704437D01*
X138055641Y-118881432D01*
X138082730Y-118918715D01*
X138082731Y-118918716D01*
X138754000Y-118247447D01*
X138754000Y-118270160D01*
X138779964Y-118367061D01*
X138830124Y-118453940D01*
X138901060Y-118524876D01*
X138987939Y-118575036D01*
X139084840Y-118601000D01*
X139107553Y-118601000D01*
X138436283Y-119272268D01*
X138436283Y-119272269D01*
X138473567Y-119299358D01*
X138630331Y-119379234D01*
X138681127Y-119427209D01*
X138697922Y-119495030D01*
X138675384Y-119561165D01*
X138630331Y-119600204D01*
X138473305Y-119680213D01*
X138312533Y-119797021D01*
X138172021Y-119937533D01*
X138055213Y-120098305D01*
X137964994Y-120275367D01*
X137964993Y-120275370D01*
X137903587Y-120464362D01*
X137872500Y-120660639D01*
X137872500Y-120859360D01*
X137903587Y-121055637D01*
X137964993Y-121244629D01*
X137964994Y-121244632D01*
X138024033Y-121360500D01*
X138055213Y-121421694D01*
X138172019Y-121582464D01*
X138312536Y-121722981D01*
X138473305Y-121839786D01*
X138473309Y-121839789D01*
X138475285Y-121841000D01*
X138475878Y-121841656D01*
X138477248Y-121842651D01*
X138477039Y-121842938D01*
X138522163Y-121892810D01*
X138534500Y-121946730D01*
X138534500Y-125197458D01*
X138514815Y-125264497D01*
X138466796Y-125307942D01*
X138337359Y-125373894D01*
X138139923Y-125517339D01*
X138139918Y-125517343D01*
X137967343Y-125689918D01*
X137967339Y-125689923D01*
X137823896Y-125887357D01*
X137713097Y-126104812D01*
X137637678Y-126336927D01*
X137599500Y-126577973D01*
X136940500Y-126577973D01*
X136940500Y-65563139D01*
X138682895Y-65563139D01*
X138682895Y-65761860D01*
X138713982Y-65958137D01*
X138775388Y-66147129D01*
X138775389Y-66147132D01*
X138865471Y-66323925D01*
X138865608Y-66324194D01*
X138982414Y-66484964D01*
X139122931Y-66625481D01*
X139283701Y-66742287D01*
X139402227Y-66802679D01*
X139440175Y-66822015D01*
X139490971Y-66869990D01*
X139507766Y-66937811D01*
X139485228Y-67003946D01*
X139440175Y-67042985D01*
X139283700Y-67122713D01*
X139122928Y-67239521D01*
X138982416Y-67380033D01*
X138865608Y-67540805D01*
X138775389Y-67717867D01*
X138775388Y-67717870D01*
X138713982Y-67906862D01*
X138682895Y-68103139D01*
X138682895Y-68301860D01*
X138713982Y-68498137D01*
X138775388Y-68687129D01*
X138775389Y-68687132D01*
X138865608Y-68864194D01*
X138982414Y-69024964D01*
X139122931Y-69165481D01*
X139283701Y-69282287D01*
X139402227Y-69342679D01*
X139440175Y-69362015D01*
X139490971Y-69409990D01*
X139507766Y-69477811D01*
X139485228Y-69543946D01*
X139440175Y-69582985D01*
X139283700Y-69662713D01*
X139122928Y-69779521D01*
X138982416Y-69920033D01*
X138865608Y-70080805D01*
X138775389Y-70257867D01*
X138775388Y-70257870D01*
X138713982Y-70446862D01*
X138682895Y-70643139D01*
X138682895Y-70841860D01*
X138713982Y-71038137D01*
X138775388Y-71227129D01*
X138775389Y-71227132D01*
X138865608Y-71404194D01*
X138982414Y-71564964D01*
X139122931Y-71705481D01*
X139283701Y-71822287D01*
X139440727Y-71902296D01*
X139491522Y-71950269D01*
X139508317Y-72018090D01*
X139485780Y-72084225D01*
X139440727Y-72123264D01*
X139283961Y-72203141D01*
X139246678Y-72230229D01*
X139246677Y-72230230D01*
X139917949Y-72901500D01*
X139895235Y-72901500D01*
X139798334Y-72927464D01*
X139711455Y-72977624D01*
X139640519Y-73048560D01*
X139590359Y-73135439D01*
X139564395Y-73232340D01*
X139564395Y-73255052D01*
X138893125Y-72583782D01*
X138893124Y-72583783D01*
X138866038Y-72621064D01*
X138775852Y-72798062D01*
X138714470Y-72986976D01*
X138714470Y-72986979D01*
X138683395Y-73183178D01*
X138683395Y-73381821D01*
X138714470Y-73578020D01*
X138714470Y-73578023D01*
X138775852Y-73766937D01*
X138866036Y-73943932D01*
X138893125Y-73981215D01*
X138893126Y-73981216D01*
X139564395Y-73309947D01*
X139564395Y-73332660D01*
X139590359Y-73429561D01*
X139640519Y-73516440D01*
X139711455Y-73587376D01*
X139798334Y-73637536D01*
X139895235Y-73663500D01*
X139917948Y-73663500D01*
X139246678Y-74334768D01*
X139246678Y-74334769D01*
X139283962Y-74361858D01*
X139460957Y-74452042D01*
X139649872Y-74513424D01*
X139846074Y-74544500D01*
X140044716Y-74544500D01*
X140240915Y-74513424D01*
X140240918Y-74513424D01*
X140429832Y-74452042D01*
X140606820Y-74361862D01*
X140644111Y-74334768D01*
X139972843Y-73663500D01*
X139995555Y-73663500D01*
X140092456Y-73637536D01*
X140179335Y-73587376D01*
X140250271Y-73516440D01*
X140300431Y-73429561D01*
X140326395Y-73332660D01*
X140326395Y-73309947D01*
X140997663Y-73981215D01*
X141024757Y-73943925D01*
X141114937Y-73766937D01*
X141176319Y-73578023D01*
X141176319Y-73578020D01*
X141207395Y-73381821D01*
X141207395Y-73183178D01*
X141176319Y-72986979D01*
X141176319Y-72986976D01*
X141114937Y-72798062D01*
X141024753Y-72621067D01*
X140997663Y-72583783D01*
X140326395Y-73255051D01*
X140326395Y-73232340D01*
X140300431Y-73135439D01*
X140250271Y-73048560D01*
X140179335Y-72977624D01*
X140092456Y-72927464D01*
X139995555Y-72901500D01*
X139972842Y-72901500D01*
X140644111Y-72230231D01*
X140644110Y-72230230D01*
X140606827Y-72203141D01*
X140450063Y-72123265D01*
X140399267Y-72075290D01*
X140382472Y-72007469D01*
X140405010Y-71941334D01*
X140450062Y-71902296D01*
X140607089Y-71822287D01*
X140767859Y-71705481D01*
X140908376Y-71564964D01*
X141025182Y-71404194D01*
X141115400Y-71227132D01*
X141176808Y-71038136D01*
X141207895Y-70841861D01*
X141207895Y-70643139D01*
X141176808Y-70446864D01*
X141115400Y-70257868D01*
X141115400Y-70257867D01*
X141051216Y-70131900D01*
X141025182Y-70080806D01*
X140908376Y-69920036D01*
X140767859Y-69779519D01*
X140607089Y-69662713D01*
X140450613Y-69582984D01*
X140399818Y-69535010D01*
X140383023Y-69467189D01*
X140405560Y-69401054D01*
X140450613Y-69362015D01*
X140607089Y-69282287D01*
X140767859Y-69165481D01*
X140908376Y-69024964D01*
X141025182Y-68864194D01*
X141115400Y-68687132D01*
X141176808Y-68498136D01*
X141207895Y-68301861D01*
X141207895Y-68103139D01*
X141176808Y-67906864D01*
X141115400Y-67717868D01*
X141115400Y-67717867D01*
X141025181Y-67540805D01*
X140908376Y-67380036D01*
X140767859Y-67239519D01*
X140607089Y-67122713D01*
X140450613Y-67042984D01*
X140399818Y-66995010D01*
X140383023Y-66927189D01*
X140405560Y-66861054D01*
X140450613Y-66822015D01*
X140607089Y-66742287D01*
X140767859Y-66625481D01*
X140908376Y-66484964D01*
X141025182Y-66324194D01*
X141115400Y-66147132D01*
X141176808Y-65958136D01*
X141207895Y-65761861D01*
X141207895Y-65563139D01*
X141176808Y-65366864D01*
X141115400Y-65177868D01*
X141115400Y-65177867D01*
X141069430Y-65087649D01*
X141025182Y-65000806D01*
X140908376Y-64840036D01*
X140767859Y-64699519D01*
X140607089Y-64582713D01*
X140430027Y-64492494D01*
X140430024Y-64492493D01*
X140241032Y-64431087D01*
X140142893Y-64415543D01*
X140044756Y-64400000D01*
X139846034Y-64400000D01*
X139780609Y-64410362D01*
X139649757Y-64431087D01*
X139460765Y-64492493D01*
X139460762Y-64492494D01*
X139283700Y-64582713D01*
X139122928Y-64699521D01*
X138982416Y-64840033D01*
X138865608Y-65000805D01*
X138775389Y-65177867D01*
X138775388Y-65177870D01*
X138713982Y-65366862D01*
X138682895Y-65563139D01*
X136940500Y-65563139D01*
X136940500Y-49127682D01*
X146615000Y-49127682D01*
X146615000Y-49180000D01*
X147481988Y-49180000D01*
X147449075Y-49237007D01*
X147415000Y-49364174D01*
X147415000Y-49495826D01*
X147449075Y-49622993D01*
X147481988Y-49680000D01*
X146615000Y-49680000D01*
X146615000Y-49732317D01*
X146647009Y-49934417D01*
X146710244Y-50129031D01*
X146803140Y-50311349D01*
X146923417Y-50476894D01*
X146923417Y-50476895D01*
X147068104Y-50621582D01*
X147233650Y-50741859D01*
X147415968Y-50834754D01*
X147610578Y-50897988D01*
X147665000Y-50906607D01*
X147665000Y-49863012D01*
X147722007Y-49895925D01*
X147849174Y-49930000D01*
X147980826Y-49930000D01*
X148107993Y-49895925D01*
X148165000Y-49863012D01*
X148165000Y-50906606D01*
X148219421Y-50897988D01*
X148414031Y-50834754D01*
X148596349Y-50741859D01*
X148761894Y-50621582D01*
X148761895Y-50621582D01*
X148906582Y-50476895D01*
X148906582Y-50476894D01*
X149026861Y-50311347D01*
X149074234Y-50218371D01*
X149122208Y-50167575D01*
X149190028Y-50150779D01*
X149256164Y-50173316D01*
X149295203Y-50218369D01*
X149342713Y-50311611D01*
X149463028Y-50477213D01*
X149607786Y-50621971D01*
X149722133Y-50705047D01*
X149773390Y-50742287D01*
X149892620Y-50803037D01*
X149955780Y-50835220D01*
X149955782Y-50835220D01*
X149983814Y-50844328D01*
X150041491Y-50883763D01*
X150068691Y-50948121D01*
X150069500Y-50962260D01*
X150069500Y-55483330D01*
X150069499Y-55483348D01*
X150069499Y-55649054D01*
X150069498Y-55649054D01*
X150110423Y-55801785D01*
X150139358Y-55851900D01*
X150139359Y-55851904D01*
X150139360Y-55851904D01*
X150189479Y-55938714D01*
X150189481Y-55938717D01*
X150308349Y-56057585D01*
X150308355Y-56057590D01*
X158913181Y-64662416D01*
X158946666Y-64723739D01*
X158949500Y-64750097D01*
X158949500Y-69763330D01*
X158949499Y-69763348D01*
X158949499Y-69929054D01*
X158949498Y-69929054D01*
X158990423Y-70081785D01*
X159019358Y-70131900D01*
X159019359Y-70131904D01*
X159019360Y-70131904D01*
X159069479Y-70218714D01*
X159069481Y-70218717D01*
X159188349Y-70337585D01*
X159188355Y-70337590D01*
X162497639Y-73646874D01*
X162497649Y-73646885D01*
X162501979Y-73651215D01*
X162501980Y-73651216D01*
X162613784Y-73763020D01*
X162700595Y-73813139D01*
X162700597Y-73813141D01*
X162738651Y-73835111D01*
X162750715Y-73842077D01*
X162903443Y-73883000D01*
X162958665Y-73883000D01*
X163025704Y-73902685D01*
X163062586Y-73940366D01*
X163062744Y-73940252D01*
X163063522Y-73941323D01*
X163064395Y-73942215D01*
X163065605Y-73944190D01*
X163065608Y-73944194D01*
X163182414Y-74104964D01*
X163322931Y-74245481D01*
X163445826Y-74334769D01*
X163483704Y-74362289D01*
X163485680Y-74363500D01*
X163486273Y-74364156D01*
X163487643Y-74365151D01*
X163487434Y-74365438D01*
X163492648Y-74371201D01*
X163502098Y-74375517D01*
X163515691Y-74396668D01*
X163532558Y-74415310D01*
X163535259Y-74427118D01*
X163539872Y-74434295D01*
X163544895Y-74469230D01*
X163544895Y-74504507D01*
X163525210Y-74571546D01*
X163508576Y-74592188D01*
X163037584Y-75063181D01*
X162976261Y-75096666D01*
X162949903Y-75099500D01*
X153069057Y-75099500D01*
X152910943Y-75099500D01*
X152758215Y-75140423D01*
X152758214Y-75140423D01*
X152758212Y-75140424D01*
X152758209Y-75140425D01*
X152708096Y-75169359D01*
X152708095Y-75169360D01*
X152701233Y-75173322D01*
X152621285Y-75219479D01*
X152621282Y-75219481D01*
X152509478Y-75331286D01*
X148594377Y-79246386D01*
X148533054Y-79279871D01*
X148468378Y-79276636D01*
X148329536Y-79231523D01*
X148194746Y-79210174D01*
X148127352Y-79199500D01*
X147922648Y-79199500D01*
X147898329Y-79203351D01*
X147720465Y-79231522D01*
X147525776Y-79294781D01*
X147343386Y-79387715D01*
X147177786Y-79508028D01*
X147033028Y-79652786D01*
X146912715Y-79818386D01*
X146819781Y-80000776D01*
X146756522Y-80195465D01*
X146724500Y-80397648D01*
X146724500Y-80602351D01*
X146756522Y-80804534D01*
X146819781Y-80999223D01*
X146912715Y-81181613D01*
X147033028Y-81347213D01*
X147033034Y-81347219D01*
X147177781Y-81491966D01*
X147343390Y-81612287D01*
X147356793Y-81619116D01*
X147407589Y-81667088D01*
X147424500Y-81729601D01*
X147424500Y-83320397D01*
X147404815Y-83387436D01*
X147356800Y-83430879D01*
X147343389Y-83437712D01*
X147177786Y-83558028D01*
X147033028Y-83702786D01*
X146912715Y-83868386D01*
X146819781Y-84050776D01*
X146756522Y-84245465D01*
X146724500Y-84447648D01*
X146724500Y-84652351D01*
X146756522Y-84854534D01*
X146819781Y-85049223D01*
X146912715Y-85231613D01*
X147033028Y-85397213D01*
X147033034Y-85397219D01*
X147177781Y-85541966D01*
X147343390Y-85662287D01*
X147356793Y-85669116D01*
X147407589Y-85717088D01*
X147424500Y-85779601D01*
X147424500Y-104098330D01*
X147424499Y-104098348D01*
X147424499Y-104264054D01*
X147424498Y-104264054D01*
X147465423Y-104416785D01*
X147494358Y-104466900D01*
X147494359Y-104466904D01*
X147494360Y-104466904D01*
X147544479Y-104553714D01*
X147544481Y-104553717D01*
X147663349Y-104672585D01*
X147663355Y-104672590D01*
X163287019Y-120296255D01*
X163320504Y-120357578D01*
X163317269Y-120422254D01*
X163303587Y-120464362D01*
X163272500Y-120660639D01*
X163272500Y-120859360D01*
X163303587Y-121055637D01*
X163364993Y-121244629D01*
X163364994Y-121244632D01*
X163424033Y-121360500D01*
X163455213Y-121421694D01*
X163572019Y-121582464D01*
X163712536Y-121722981D01*
X163873306Y-121839787D01*
X163934500Y-121870967D01*
X164050367Y-121930005D01*
X164050370Y-121930006D01*
X164144866Y-121960709D01*
X164239364Y-121991413D01*
X164435639Y-122022500D01*
X164435640Y-122022500D01*
X164634360Y-122022500D01*
X164634361Y-122022500D01*
X164830636Y-121991413D01*
X165019632Y-121930005D01*
X165196694Y-121839787D01*
X165357464Y-121722981D01*
X165497981Y-121582464D01*
X165614787Y-121421694D01*
X165705005Y-121244632D01*
X165766413Y-121055636D01*
X165797500Y-120859361D01*
X165797500Y-120660639D01*
X165766413Y-120464364D01*
X165705005Y-120275368D01*
X165705005Y-120275367D01*
X165635937Y-120139815D01*
X165614787Y-120098306D01*
X165497981Y-119937536D01*
X165357464Y-119797019D01*
X165196694Y-119680213D01*
X165040218Y-119600484D01*
X164989423Y-119552510D01*
X164972628Y-119484689D01*
X164995165Y-119418554D01*
X165040218Y-119379515D01*
X165196694Y-119299787D01*
X165357464Y-119182981D01*
X165497981Y-119042464D01*
X165614787Y-118881694D01*
X165705005Y-118704632D01*
X165766413Y-118515636D01*
X165797500Y-118319361D01*
X165797500Y-118120639D01*
X165766413Y-117924364D01*
X165705005Y-117735368D01*
X165705005Y-117735367D01*
X165635981Y-117599902D01*
X165614787Y-117558306D01*
X165497981Y-117397536D01*
X165357464Y-117257019D01*
X165196694Y-117140213D01*
X165040218Y-117060484D01*
X164989423Y-117012510D01*
X164972628Y-116944689D01*
X164995165Y-116878554D01*
X165040218Y-116839515D01*
X165196694Y-116759787D01*
X165357464Y-116642981D01*
X165497981Y-116502464D01*
X165614787Y-116341694D01*
X165705005Y-116164632D01*
X165766413Y-115975636D01*
X165797500Y-115779361D01*
X165797500Y-115580639D01*
X165766413Y-115384364D01*
X165705005Y-115195368D01*
X165705005Y-115195367D01*
X165614786Y-115018305D01*
X165497981Y-114857536D01*
X165357464Y-114717019D01*
X165196694Y-114600213D01*
X165040218Y-114520484D01*
X164989423Y-114472510D01*
X164972628Y-114404689D01*
X164995165Y-114338554D01*
X165040218Y-114299515D01*
X165196694Y-114219787D01*
X165357464Y-114102981D01*
X165497981Y-113962464D01*
X165614787Y-113801694D01*
X165705005Y-113624632D01*
X165766413Y-113435636D01*
X165797500Y-113239361D01*
X165797500Y-113040639D01*
X165766413Y-112844364D01*
X165705005Y-112655368D01*
X165705005Y-112655367D01*
X165614786Y-112478305D01*
X165497981Y-112317536D01*
X165357464Y-112177019D01*
X165196694Y-112060213D01*
X165040218Y-111980484D01*
X164989423Y-111932510D01*
X164972628Y-111864689D01*
X164995165Y-111798554D01*
X165040218Y-111759515D01*
X165196694Y-111679787D01*
X165357464Y-111562981D01*
X165497981Y-111422464D01*
X165614787Y-111261694D01*
X165705005Y-111084632D01*
X165766413Y-110895636D01*
X165797500Y-110699361D01*
X165797500Y-110500639D01*
X165766413Y-110304364D01*
X165705005Y-110115368D01*
X165705005Y-110115367D01*
X165614786Y-109938305D01*
X165497981Y-109777536D01*
X165357464Y-109637019D01*
X165196694Y-109520213D01*
X165040218Y-109440484D01*
X164989423Y-109392510D01*
X164972628Y-109324689D01*
X164995165Y-109258554D01*
X165040218Y-109219515D01*
X165196694Y-109139787D01*
X165357464Y-109022981D01*
X165497981Y-108882464D01*
X165614787Y-108721694D01*
X165705005Y-108544632D01*
X165766413Y-108355636D01*
X165797500Y-108159361D01*
X165797500Y-107960639D01*
X165766413Y-107764364D01*
X165705005Y-107575368D01*
X165705005Y-107575367D01*
X165614786Y-107398305D01*
X165497981Y-107237536D01*
X165357464Y-107097019D01*
X165196694Y-106980213D01*
X165040218Y-106900484D01*
X164989423Y-106852510D01*
X164972628Y-106784689D01*
X164995165Y-106718554D01*
X165040218Y-106679515D01*
X165196694Y-106599787D01*
X165357464Y-106482981D01*
X165497981Y-106342464D01*
X165614787Y-106181694D01*
X165705005Y-106004632D01*
X165766413Y-105815636D01*
X165797500Y-105619361D01*
X165797500Y-105420639D01*
X165766413Y-105224364D01*
X165705005Y-105035368D01*
X165705005Y-105035367D01*
X165614786Y-104858305D01*
X165497981Y-104697536D01*
X165357464Y-104557019D01*
X165196694Y-104440213D01*
X165040218Y-104360484D01*
X164989423Y-104312510D01*
X164972628Y-104244689D01*
X164995165Y-104178554D01*
X165040218Y-104139515D01*
X165196694Y-104059787D01*
X165357464Y-103942981D01*
X165497981Y-103802464D01*
X165614787Y-103641694D01*
X165705005Y-103464632D01*
X165766413Y-103275636D01*
X165797500Y-103079361D01*
X165797500Y-102880639D01*
X165766413Y-102684364D01*
X165705005Y-102495368D01*
X165705005Y-102495367D01*
X165614786Y-102318305D01*
X165497981Y-102157536D01*
X165357464Y-102017019D01*
X165196694Y-101900213D01*
X165040218Y-101820484D01*
X164989423Y-101772510D01*
X164972628Y-101704689D01*
X164995165Y-101638554D01*
X165040218Y-101599515D01*
X165196694Y-101519787D01*
X165357464Y-101402981D01*
X165497981Y-101262464D01*
X165614787Y-101101694D01*
X165705005Y-100924632D01*
X165766413Y-100735636D01*
X165797500Y-100539361D01*
X165797500Y-100340639D01*
X165766413Y-100144364D01*
X165705005Y-99955368D01*
X165705005Y-99955367D01*
X165614786Y-99778305D01*
X165497981Y-99617536D01*
X165357464Y-99477019D01*
X165196694Y-99360213D01*
X165040218Y-99280484D01*
X164989423Y-99232510D01*
X164972628Y-99164689D01*
X164995165Y-99098554D01*
X165040218Y-99059515D01*
X165196694Y-98979787D01*
X165357464Y-98862981D01*
X165497981Y-98722464D01*
X165614787Y-98561694D01*
X165705005Y-98384632D01*
X165766413Y-98195636D01*
X165797500Y-97999361D01*
X165797500Y-97800639D01*
X165766413Y-97604364D01*
X165705005Y-97415368D01*
X165705005Y-97415367D01*
X165614786Y-97238305D01*
X165497981Y-97077536D01*
X165357464Y-96937019D01*
X165196694Y-96820213D01*
X165040218Y-96740484D01*
X164989423Y-96692510D01*
X164972628Y-96624689D01*
X164995165Y-96558554D01*
X165040218Y-96519515D01*
X165196694Y-96439787D01*
X165357464Y-96322981D01*
X165497981Y-96182464D01*
X165614787Y-96021694D01*
X165705005Y-95844632D01*
X165766413Y-95655636D01*
X165797500Y-95459361D01*
X165797500Y-95260639D01*
X165766413Y-95064364D01*
X165705005Y-94875368D01*
X165705005Y-94875367D01*
X165614786Y-94698305D01*
X165497981Y-94537536D01*
X165357464Y-94397019D01*
X165196694Y-94280213D01*
X165040218Y-94200484D01*
X164989423Y-94152510D01*
X164972628Y-94084689D01*
X164995165Y-94018554D01*
X165040218Y-93979515D01*
X165196694Y-93899787D01*
X165357464Y-93782981D01*
X165497981Y-93642464D01*
X165614787Y-93481694D01*
X165705005Y-93304632D01*
X165766413Y-93115636D01*
X165797500Y-92919361D01*
X165797500Y-92720639D01*
X165766413Y-92524364D01*
X165705005Y-92335368D01*
X165705005Y-92335367D01*
X165614786Y-92158305D01*
X165497981Y-91997536D01*
X165357464Y-91857019D01*
X165196694Y-91740213D01*
X165040218Y-91660484D01*
X164989423Y-91612510D01*
X164972628Y-91544689D01*
X164995165Y-91478554D01*
X165040218Y-91439515D01*
X165196694Y-91359787D01*
X165357464Y-91242981D01*
X165497981Y-91102464D01*
X165614787Y-90941694D01*
X165705005Y-90764632D01*
X165766413Y-90575636D01*
X165797500Y-90379361D01*
X165797500Y-90180639D01*
X165766413Y-89984364D01*
X165705005Y-89795368D01*
X165705005Y-89795367D01*
X165614786Y-89618305D01*
X165497981Y-89457536D01*
X165357464Y-89317019D01*
X165196694Y-89200213D01*
X165040218Y-89120484D01*
X164989423Y-89072510D01*
X164972628Y-89004689D01*
X164995165Y-88938554D01*
X165040218Y-88899515D01*
X165196694Y-88819787D01*
X165357464Y-88702981D01*
X165497981Y-88562464D01*
X165614787Y-88401694D01*
X165705005Y-88224632D01*
X165766413Y-88035636D01*
X165797500Y-87839361D01*
X165797500Y-87640639D01*
X165766413Y-87444364D01*
X165705005Y-87255368D01*
X165705005Y-87255367D01*
X165614786Y-87078305D01*
X165497981Y-86917536D01*
X165357464Y-86777019D01*
X165196694Y-86660213D01*
X165040218Y-86580484D01*
X164989423Y-86532510D01*
X164972628Y-86464689D01*
X164995165Y-86398554D01*
X165040218Y-86359515D01*
X165196694Y-86279787D01*
X165357464Y-86162981D01*
X165497981Y-86022464D01*
X165614787Y-85861694D01*
X165705005Y-85684632D01*
X165766413Y-85495636D01*
X165797500Y-85299361D01*
X165797500Y-85100639D01*
X165766413Y-84904364D01*
X165705005Y-84715368D01*
X165705005Y-84715367D01*
X165614786Y-84538305D01*
X165548920Y-84447648D01*
X165497981Y-84377536D01*
X165357464Y-84237019D01*
X165196694Y-84120213D01*
X165040218Y-84040484D01*
X164989423Y-83992510D01*
X164972628Y-83924689D01*
X164995165Y-83858554D01*
X165040218Y-83819515D01*
X165196694Y-83739787D01*
X165357464Y-83622981D01*
X165497981Y-83482464D01*
X165614787Y-83321694D01*
X165705005Y-83144632D01*
X165766413Y-82955636D01*
X165797500Y-82759361D01*
X165797500Y-82560639D01*
X165766413Y-82364364D01*
X165705005Y-82175368D01*
X165705005Y-82175367D01*
X165614786Y-81998305D01*
X165497981Y-81837536D01*
X165357464Y-81697019D01*
X165196694Y-81580213D01*
X165040218Y-81500484D01*
X164989423Y-81452510D01*
X164972628Y-81384689D01*
X164995165Y-81318554D01*
X165040218Y-81279515D01*
X165196694Y-81199787D01*
X165357464Y-81082981D01*
X165497981Y-80942464D01*
X165614787Y-80781694D01*
X165705005Y-80604632D01*
X165766413Y-80415636D01*
X165797500Y-80219361D01*
X165797500Y-80020639D01*
X165766413Y-79824364D01*
X165735709Y-79729866D01*
X165705006Y-79635370D01*
X165705005Y-79635367D01*
X165614786Y-79458305D01*
X165605925Y-79446109D01*
X165497981Y-79297536D01*
X165357464Y-79157019D01*
X165196694Y-79040213D01*
X165040218Y-78960484D01*
X164989423Y-78912510D01*
X164972628Y-78844689D01*
X164995165Y-78778554D01*
X165040218Y-78739515D01*
X165196694Y-78659787D01*
X165357464Y-78542981D01*
X165497981Y-78402464D01*
X165614787Y-78241694D01*
X165705005Y-78064632D01*
X165766413Y-77875636D01*
X165797500Y-77679361D01*
X165797500Y-77480639D01*
X165766413Y-77284364D01*
X165705005Y-77095368D01*
X165705005Y-77095367D01*
X165614786Y-76918305D01*
X165497981Y-76757536D01*
X165357464Y-76617019D01*
X165196694Y-76500213D01*
X165019632Y-76409994D01*
X165019629Y-76409993D01*
X164830637Y-76348587D01*
X164732498Y-76333043D01*
X164634361Y-76317500D01*
X164435639Y-76317500D01*
X164370214Y-76327862D01*
X164239362Y-76348587D01*
X164050370Y-76409993D01*
X164050367Y-76409994D01*
X163873305Y-76500213D01*
X163712533Y-76617021D01*
X163572021Y-76757533D01*
X163455213Y-76918305D01*
X163364994Y-77095367D01*
X163364993Y-77095370D01*
X163303587Y-77284362D01*
X163272500Y-77480639D01*
X163272500Y-77679360D01*
X163303587Y-77875637D01*
X163364993Y-78064629D01*
X163364994Y-78064632D01*
X163455213Y-78241694D01*
X163572019Y-78402464D01*
X163712536Y-78542981D01*
X163873306Y-78659787D01*
X163991832Y-78720179D01*
X164029780Y-78739515D01*
X164080576Y-78787490D01*
X164097371Y-78855311D01*
X164074833Y-78921446D01*
X164029780Y-78960485D01*
X163873305Y-79040213D01*
X163712533Y-79157021D01*
X163572021Y-79297533D01*
X163455213Y-79458305D01*
X163364994Y-79635367D01*
X163364993Y-79635370D01*
X163303587Y-79824362D01*
X163272500Y-80020639D01*
X163272500Y-80219360D01*
X163303587Y-80415637D01*
X163364993Y-80604629D01*
X163364994Y-80604632D01*
X163455213Y-80781694D01*
X163572019Y-80942464D01*
X163712536Y-81082981D01*
X163873306Y-81199787D01*
X163991832Y-81260179D01*
X164029780Y-81279515D01*
X164080576Y-81327490D01*
X164097371Y-81395311D01*
X164074833Y-81461446D01*
X164029780Y-81500485D01*
X163873305Y-81580213D01*
X163712533Y-81697021D01*
X163572021Y-81837533D01*
X163455213Y-81998305D01*
X163364994Y-82175367D01*
X163364993Y-82175370D01*
X163303587Y-82364362D01*
X163272500Y-82560639D01*
X163272500Y-82759360D01*
X163303587Y-82955637D01*
X163364993Y-83144629D01*
X163364994Y-83144632D01*
X163418428Y-83249500D01*
X163455213Y-83321694D01*
X163572019Y-83482464D01*
X163712536Y-83622981D01*
X163873306Y-83739787D01*
X163991832Y-83800179D01*
X164029780Y-83819515D01*
X164080576Y-83867490D01*
X164097371Y-83935311D01*
X164074833Y-84001446D01*
X164029780Y-84040485D01*
X163873305Y-84120213D01*
X163712533Y-84237021D01*
X163572021Y-84377533D01*
X163455213Y-84538305D01*
X163364994Y-84715367D01*
X163364993Y-84715370D01*
X163303587Y-84904362D01*
X163272500Y-85100639D01*
X163272500Y-85299360D01*
X163303587Y-85495637D01*
X163364993Y-85684629D01*
X163364994Y-85684632D01*
X163449509Y-85850500D01*
X163455213Y-85861694D01*
X163572019Y-86022464D01*
X163712536Y-86162981D01*
X163873306Y-86279787D01*
X163991832Y-86340179D01*
X164029780Y-86359515D01*
X164080576Y-86407490D01*
X164097371Y-86475311D01*
X164074833Y-86541446D01*
X164029780Y-86580485D01*
X163873305Y-86660213D01*
X163712533Y-86777021D01*
X163572021Y-86917533D01*
X163455213Y-87078305D01*
X163364994Y-87255367D01*
X163364993Y-87255370D01*
X163303587Y-87444362D01*
X163272500Y-87640639D01*
X163272500Y-87839360D01*
X163303587Y-88035637D01*
X163364993Y-88224629D01*
X163364994Y-88224632D01*
X163455213Y-88401694D01*
X163572019Y-88562464D01*
X163712536Y-88702981D01*
X163873306Y-88819787D01*
X163991832Y-88880179D01*
X164029780Y-88899515D01*
X164080576Y-88947490D01*
X164097371Y-89015311D01*
X164074833Y-89081446D01*
X164029780Y-89120485D01*
X163873305Y-89200213D01*
X163712533Y-89317021D01*
X163572021Y-89457533D01*
X163455213Y-89618305D01*
X163364994Y-89795367D01*
X163364993Y-89795370D01*
X163303587Y-89984362D01*
X163272500Y-90180639D01*
X163272500Y-90379360D01*
X163303587Y-90575637D01*
X163364993Y-90764629D01*
X163364994Y-90764632D01*
X163455213Y-90941694D01*
X163572019Y-91102464D01*
X163712536Y-91242981D01*
X163873306Y-91359787D01*
X163991832Y-91420179D01*
X164029780Y-91439515D01*
X164080576Y-91487490D01*
X164097371Y-91555311D01*
X164074833Y-91621446D01*
X164029780Y-91660485D01*
X163873305Y-91740213D01*
X163712533Y-91857021D01*
X163572021Y-91997533D01*
X163455213Y-92158305D01*
X163364994Y-92335367D01*
X163364993Y-92335370D01*
X163303587Y-92524362D01*
X163272500Y-92720639D01*
X163272500Y-92919360D01*
X163303587Y-93115637D01*
X163364993Y-93304629D01*
X163364994Y-93304632D01*
X163455213Y-93481694D01*
X163572019Y-93642464D01*
X163712536Y-93782981D01*
X163873306Y-93899787D01*
X163991832Y-93960179D01*
X164029780Y-93979515D01*
X164080576Y-94027490D01*
X164097371Y-94095311D01*
X164074833Y-94161446D01*
X164029780Y-94200485D01*
X163873305Y-94280213D01*
X163712533Y-94397021D01*
X163572021Y-94537533D01*
X163455213Y-94698305D01*
X163364994Y-94875367D01*
X163364993Y-94875370D01*
X163303587Y-95064362D01*
X163272500Y-95260639D01*
X163272500Y-95459360D01*
X163303587Y-95655637D01*
X163364993Y-95844629D01*
X163364994Y-95844632D01*
X163455213Y-96021694D01*
X163572019Y-96182464D01*
X163712536Y-96322981D01*
X163873306Y-96439787D01*
X163991832Y-96500179D01*
X164029780Y-96519515D01*
X164080576Y-96567490D01*
X164097371Y-96635311D01*
X164074833Y-96701446D01*
X164029780Y-96740485D01*
X163873305Y-96820213D01*
X163712533Y-96937021D01*
X163572021Y-97077533D01*
X163455213Y-97238305D01*
X163364994Y-97415367D01*
X163364993Y-97415370D01*
X163303587Y-97604362D01*
X163272500Y-97800639D01*
X163272500Y-97999360D01*
X163303587Y-98195637D01*
X163364993Y-98384629D01*
X163364994Y-98384632D01*
X163455213Y-98561694D01*
X163572019Y-98722464D01*
X163712536Y-98862981D01*
X163873306Y-98979787D01*
X163991832Y-99040179D01*
X164029780Y-99059515D01*
X164080576Y-99107490D01*
X164097371Y-99175311D01*
X164074833Y-99241446D01*
X164029780Y-99280485D01*
X163873305Y-99360213D01*
X163712533Y-99477021D01*
X163572021Y-99617533D01*
X163455213Y-99778305D01*
X163364994Y-99955367D01*
X163364993Y-99955370D01*
X163303587Y-100144362D01*
X163272500Y-100340639D01*
X163272500Y-100539360D01*
X163303587Y-100735637D01*
X163364993Y-100924629D01*
X163364994Y-100924632D01*
X163455213Y-101101694D01*
X163572019Y-101262464D01*
X163712536Y-101402981D01*
X163873306Y-101519787D01*
X163991832Y-101580179D01*
X164029780Y-101599515D01*
X164080576Y-101647490D01*
X164097371Y-101715311D01*
X164074833Y-101781446D01*
X164029780Y-101820485D01*
X163873305Y-101900213D01*
X163712533Y-102017021D01*
X163572021Y-102157533D01*
X163455213Y-102318305D01*
X163364994Y-102495367D01*
X163364993Y-102495370D01*
X163303587Y-102684362D01*
X163272500Y-102880639D01*
X163272500Y-103079360D01*
X163303587Y-103275637D01*
X163364993Y-103464629D01*
X163364994Y-103464632D01*
X163455213Y-103641694D01*
X163572019Y-103802464D01*
X163712536Y-103942981D01*
X163873306Y-104059787D01*
X163948951Y-104098330D01*
X164029780Y-104139515D01*
X164080576Y-104187490D01*
X164097371Y-104255311D01*
X164074833Y-104321446D01*
X164029780Y-104360485D01*
X163873305Y-104440213D01*
X163712533Y-104557021D01*
X163572021Y-104697533D01*
X163455213Y-104858305D01*
X163364994Y-105035367D01*
X163364993Y-105035370D01*
X163303587Y-105224362D01*
X163272500Y-105420639D01*
X163272500Y-105619360D01*
X163303587Y-105815637D01*
X163364993Y-106004629D01*
X163364994Y-106004632D01*
X163455213Y-106181694D01*
X163572019Y-106342464D01*
X163712536Y-106482981D01*
X163873306Y-106599787D01*
X163991832Y-106660179D01*
X164029780Y-106679515D01*
X164080576Y-106727490D01*
X164097371Y-106795311D01*
X164074833Y-106861446D01*
X164029780Y-106900485D01*
X163873305Y-106980213D01*
X163712533Y-107097021D01*
X163572021Y-107237533D01*
X163455213Y-107398305D01*
X163364994Y-107575367D01*
X163364993Y-107575370D01*
X163303587Y-107764362D01*
X163272500Y-107960639D01*
X163272500Y-108159360D01*
X163303587Y-108355637D01*
X163364993Y-108544629D01*
X163364994Y-108544632D01*
X163455213Y-108721694D01*
X163572019Y-108882464D01*
X163712536Y-109022981D01*
X163873306Y-109139787D01*
X163991832Y-109200179D01*
X164029780Y-109219515D01*
X164080576Y-109267490D01*
X164097371Y-109335311D01*
X164074833Y-109401446D01*
X164029780Y-109440485D01*
X163873305Y-109520213D01*
X163712533Y-109637021D01*
X163572021Y-109777533D01*
X163455213Y-109938305D01*
X163364994Y-110115367D01*
X163364993Y-110115370D01*
X163303587Y-110304362D01*
X163272500Y-110500639D01*
X163272500Y-110699360D01*
X163303587Y-110895637D01*
X163364993Y-111084629D01*
X163364994Y-111084632D01*
X163455213Y-111261694D01*
X163572019Y-111422464D01*
X163712536Y-111562981D01*
X163873306Y-111679787D01*
X163991832Y-111740179D01*
X164029780Y-111759515D01*
X164080576Y-111807490D01*
X164097371Y-111875311D01*
X164074833Y-111941446D01*
X164029780Y-111980485D01*
X163873305Y-112060213D01*
X163712533Y-112177021D01*
X163572021Y-112317533D01*
X163455213Y-112478305D01*
X163364994Y-112655367D01*
X163364993Y-112655370D01*
X163303587Y-112844362D01*
X163272500Y-113040639D01*
X163272500Y-113239360D01*
X163303587Y-113435637D01*
X163364993Y-113624629D01*
X163364994Y-113624632D01*
X163455213Y-113801694D01*
X163572019Y-113962464D01*
X163712536Y-114102981D01*
X163873306Y-114219787D01*
X163991832Y-114280179D01*
X164029780Y-114299515D01*
X164080576Y-114347490D01*
X164097371Y-114415311D01*
X164074833Y-114481446D01*
X164029780Y-114520485D01*
X163873305Y-114600213D01*
X163712533Y-114717021D01*
X163572021Y-114857533D01*
X163455213Y-115018305D01*
X163364994Y-115195367D01*
X163364993Y-115195370D01*
X163303587Y-115384362D01*
X163272500Y-115580639D01*
X163272500Y-115779360D01*
X163303587Y-115975637D01*
X163364993Y-116164629D01*
X163364994Y-116164632D01*
X163455213Y-116341694D01*
X163572019Y-116502464D01*
X163712536Y-116642981D01*
X163873306Y-116759787D01*
X163991832Y-116820179D01*
X164029780Y-116839515D01*
X164080576Y-116887490D01*
X164097371Y-116955311D01*
X164074833Y-117021446D01*
X164029780Y-117060485D01*
X163873305Y-117140213D01*
X163712533Y-117257021D01*
X163572021Y-117397533D01*
X163455213Y-117558305D01*
X163364994Y-117735367D01*
X163364993Y-117735370D01*
X163303587Y-117924362D01*
X163272500Y-118120639D01*
X163272500Y-118283902D01*
X163252815Y-118350941D01*
X163200011Y-118396696D01*
X163130853Y-118406640D01*
X163067297Y-118377615D01*
X163060819Y-118371583D01*
X148661819Y-103972583D01*
X148628334Y-103911260D01*
X148625500Y-103884902D01*
X148625500Y-85779601D01*
X148645185Y-85712562D01*
X148693206Y-85669116D01*
X148706610Y-85662287D01*
X148872219Y-85541966D01*
X149016966Y-85397219D01*
X149016968Y-85397215D01*
X149016971Y-85397213D01*
X149088064Y-85299360D01*
X149137287Y-85231610D01*
X149230220Y-85049219D01*
X149293477Y-84854534D01*
X149325500Y-84652352D01*
X149325500Y-84447648D01*
X154344500Y-84447648D01*
X154344500Y-84652351D01*
X154376522Y-84854534D01*
X154439781Y-85049223D01*
X154532715Y-85231613D01*
X154653028Y-85397213D01*
X154797786Y-85541971D01*
X154952749Y-85654556D01*
X154963390Y-85662287D01*
X155044499Y-85703614D01*
X155145776Y-85755218D01*
X155145778Y-85755218D01*
X155145781Y-85755220D01*
X155220818Y-85779601D01*
X155340465Y-85818477D01*
X155441557Y-85834488D01*
X155542648Y-85850500D01*
X155542649Y-85850500D01*
X155747351Y-85850500D01*
X155747352Y-85850500D01*
X155949534Y-85818477D01*
X156144219Y-85755220D01*
X156326610Y-85662287D01*
X156419590Y-85594732D01*
X156492213Y-85541971D01*
X156492215Y-85541968D01*
X156492219Y-85541966D01*
X156636966Y-85397219D01*
X156636968Y-85397215D01*
X156636971Y-85397213D01*
X156708064Y-85299360D01*
X156757287Y-85231610D01*
X156850220Y-85049219D01*
X156913477Y-84854534D01*
X156945500Y-84652352D01*
X156945500Y-84447648D01*
X156913477Y-84245466D01*
X156910732Y-84237019D01*
X156850218Y-84050776D01*
X156791385Y-83935311D01*
X156757287Y-83868390D01*
X156721778Y-83819515D01*
X156636971Y-83702786D01*
X156492213Y-83558028D01*
X156326613Y-83437715D01*
X156326612Y-83437714D01*
X156326610Y-83437713D01*
X156269653Y-83408691D01*
X156144223Y-83344781D01*
X155949534Y-83281522D01*
X155774995Y-83253878D01*
X155747352Y-83249500D01*
X155542648Y-83249500D01*
X155518329Y-83253351D01*
X155340465Y-83281522D01*
X155145776Y-83344781D01*
X154963386Y-83437715D01*
X154797786Y-83558028D01*
X154653028Y-83702786D01*
X154532715Y-83868386D01*
X154439781Y-84050776D01*
X154376522Y-84245465D01*
X154344500Y-84447648D01*
X149325500Y-84447648D01*
X149293477Y-84245466D01*
X149290732Y-84237019D01*
X149230218Y-84050776D01*
X149171385Y-83935311D01*
X149137287Y-83868390D01*
X149101778Y-83819515D01*
X149016971Y-83702786D01*
X148872213Y-83558028D01*
X148706610Y-83437712D01*
X148693200Y-83430879D01*
X148642406Y-83382903D01*
X148625500Y-83320397D01*
X148625500Y-81729601D01*
X148645185Y-81662562D01*
X148693206Y-81619116D01*
X148706610Y-81612287D01*
X148872219Y-81491966D01*
X149016966Y-81347219D01*
X149016968Y-81347215D01*
X149016971Y-81347213D01*
X149069732Y-81274590D01*
X149137287Y-81181610D01*
X149230220Y-80999219D01*
X149293477Y-80804534D01*
X149325500Y-80602352D01*
X149325500Y-80397648D01*
X154344500Y-80397648D01*
X154344500Y-80602351D01*
X154376522Y-80804534D01*
X154439781Y-80999223D01*
X154532715Y-81181613D01*
X154653028Y-81347213D01*
X154797786Y-81491971D01*
X154952749Y-81604556D01*
X154963390Y-81612287D01*
X155044499Y-81653614D01*
X155145776Y-81705218D01*
X155145778Y-81705218D01*
X155145781Y-81705220D01*
X155220818Y-81729601D01*
X155340465Y-81768477D01*
X155441557Y-81784488D01*
X155542648Y-81800500D01*
X155542649Y-81800500D01*
X155747351Y-81800500D01*
X155747352Y-81800500D01*
X155949534Y-81768477D01*
X156144219Y-81705220D01*
X156326610Y-81612287D01*
X156480494Y-81500485D01*
X156492213Y-81491971D01*
X156492215Y-81491968D01*
X156492219Y-81491966D01*
X156636966Y-81347219D01*
X156636968Y-81347215D01*
X156636971Y-81347213D01*
X156689732Y-81274590D01*
X156757287Y-81181610D01*
X156850220Y-80999219D01*
X156913477Y-80804534D01*
X156945500Y-80602352D01*
X156945500Y-80397648D01*
X156917262Y-80219361D01*
X156913477Y-80195465D01*
X156850218Y-80000776D01*
X156793932Y-79890310D01*
X156757287Y-79818390D01*
X156719917Y-79766954D01*
X156636971Y-79652786D01*
X156492213Y-79508028D01*
X156326613Y-79387715D01*
X156326612Y-79387714D01*
X156326610Y-79387713D01*
X156269653Y-79358691D01*
X156144223Y-79294781D01*
X155949534Y-79231522D01*
X155774995Y-79203878D01*
X155747352Y-79199500D01*
X155542648Y-79199500D01*
X155518329Y-79203351D01*
X155340465Y-79231522D01*
X155145776Y-79294781D01*
X154963386Y-79387715D01*
X154797786Y-79508028D01*
X154653028Y-79652786D01*
X154532715Y-79818386D01*
X154439781Y-80000776D01*
X154376522Y-80195465D01*
X154344500Y-80397648D01*
X149325500Y-80397648D01*
X149310149Y-80300733D01*
X149310107Y-80300451D01*
X149314756Y-80266302D01*
X149319190Y-80231992D01*
X149319487Y-80231557D01*
X149319533Y-80231220D01*
X149320462Y-80230130D01*
X149345025Y-80194208D01*
X153202416Y-76336819D01*
X153263739Y-76303334D01*
X153290097Y-76300500D01*
X163163331Y-76300500D01*
X163163347Y-76300501D01*
X163170943Y-76300501D01*
X163329054Y-76300501D01*
X163329057Y-76300501D01*
X163481785Y-76259577D01*
X163531904Y-76230639D01*
X163618716Y-76180520D01*
X163730520Y-76068716D01*
X163730520Y-76068714D01*
X163740728Y-76058507D01*
X163740729Y-76058504D01*
X164625915Y-75173321D01*
X164704972Y-75036389D01*
X164745896Y-74883662D01*
X164745896Y-74725547D01*
X164745896Y-74717952D01*
X164745895Y-74717934D01*
X164745895Y-74469230D01*
X164765580Y-74402191D01*
X164803261Y-74365308D01*
X164803147Y-74365151D01*
X164804218Y-74364372D01*
X164805110Y-74363500D01*
X164807085Y-74362289D01*
X164807084Y-74362289D01*
X164807089Y-74362287D01*
X164967859Y-74245481D01*
X165108376Y-74104964D01*
X165225182Y-73944194D01*
X165315400Y-73767132D01*
X165376808Y-73578136D01*
X165407895Y-73381861D01*
X165407895Y-73183139D01*
X165376808Y-72986864D01*
X165315400Y-72797868D01*
X165315400Y-72797867D01*
X165269430Y-72707649D01*
X165225182Y-72620806D01*
X165108376Y-72460036D01*
X164967859Y-72319519D01*
X164807089Y-72202713D01*
X164650613Y-72122984D01*
X164599818Y-72075010D01*
X164583023Y-72007189D01*
X164605560Y-71941054D01*
X164650613Y-71902015D01*
X164807089Y-71822287D01*
X164967859Y-71705481D01*
X165108376Y-71564964D01*
X165225182Y-71404194D01*
X165315400Y-71227132D01*
X165376808Y-71038136D01*
X165407895Y-70841861D01*
X165407895Y-70643139D01*
X165376808Y-70446864D01*
X165315400Y-70257868D01*
X165315400Y-70257867D01*
X165251216Y-70131900D01*
X165225182Y-70080806D01*
X165108376Y-69920036D01*
X164967859Y-69779519D01*
X164807089Y-69662713D01*
X164650613Y-69582984D01*
X164599818Y-69535010D01*
X164583023Y-69467189D01*
X164605560Y-69401054D01*
X164650613Y-69362015D01*
X164807089Y-69282287D01*
X164967859Y-69165481D01*
X165108376Y-69024964D01*
X165225182Y-68864194D01*
X165315400Y-68687132D01*
X165376808Y-68498136D01*
X165407895Y-68301861D01*
X165407895Y-68103139D01*
X165376808Y-67906864D01*
X165315400Y-67717868D01*
X165315400Y-67717867D01*
X165225181Y-67540805D01*
X165108376Y-67380036D01*
X164967859Y-67239519D01*
X164807089Y-67122713D01*
X164650062Y-67042703D01*
X164599267Y-66994729D01*
X164582472Y-66926908D01*
X164605009Y-66860773D01*
X164650064Y-66821734D01*
X164806817Y-66741864D01*
X164844111Y-66714768D01*
X164172843Y-66043500D01*
X164195555Y-66043500D01*
X164292456Y-66017536D01*
X164379335Y-65967376D01*
X164450271Y-65896440D01*
X164500431Y-65809561D01*
X164526395Y-65712660D01*
X164526395Y-65689947D01*
X165197663Y-66361215D01*
X165224757Y-66323925D01*
X165314937Y-66146937D01*
X165376319Y-65958023D01*
X165376319Y-65958020D01*
X165407395Y-65761821D01*
X165407395Y-65563178D01*
X165376319Y-65366979D01*
X165376319Y-65366976D01*
X165314937Y-65178062D01*
X165224753Y-65001067D01*
X165197663Y-64963783D01*
X164526395Y-65635051D01*
X164526395Y-65612340D01*
X164500431Y-65515439D01*
X164450271Y-65428560D01*
X164379335Y-65357624D01*
X164292456Y-65307464D01*
X164195555Y-65281500D01*
X164172842Y-65281500D01*
X164844111Y-64610231D01*
X164844110Y-64610230D01*
X164806827Y-64583141D01*
X164629832Y-64492957D01*
X164440917Y-64431575D01*
X164244716Y-64400500D01*
X164046074Y-64400500D01*
X163849874Y-64431575D01*
X163849871Y-64431575D01*
X163660957Y-64492957D01*
X163483959Y-64583143D01*
X163446678Y-64610229D01*
X163446677Y-64610230D01*
X164117949Y-65281500D01*
X164095235Y-65281500D01*
X163998334Y-65307464D01*
X163911455Y-65357624D01*
X163840519Y-65428560D01*
X163790359Y-65515439D01*
X163764395Y-65612340D01*
X163764395Y-65635052D01*
X163093125Y-64963782D01*
X163093124Y-64963783D01*
X163066038Y-65001064D01*
X162975852Y-65178062D01*
X162914470Y-65366976D01*
X162914470Y-65366979D01*
X162883395Y-65563178D01*
X162883395Y-65761821D01*
X162914470Y-65958020D01*
X162914470Y-65958023D01*
X162975852Y-66146937D01*
X163066036Y-66323932D01*
X163093125Y-66361215D01*
X163093126Y-66361216D01*
X163764395Y-65689947D01*
X163764395Y-65712660D01*
X163790359Y-65809561D01*
X163840519Y-65896440D01*
X163911455Y-65967376D01*
X163998334Y-66017536D01*
X164095235Y-66043500D01*
X164117948Y-66043500D01*
X163446678Y-66714768D01*
X163446678Y-66714769D01*
X163483962Y-66741858D01*
X163640726Y-66821734D01*
X163691522Y-66869709D01*
X163708317Y-66937530D01*
X163685779Y-67003665D01*
X163640726Y-67042704D01*
X163483700Y-67122713D01*
X163322928Y-67239521D01*
X163182416Y-67380033D01*
X163065608Y-67540805D01*
X162975389Y-67717867D01*
X162975388Y-67717870D01*
X162913982Y-67906862D01*
X162882895Y-68103139D01*
X162882895Y-68301860D01*
X162913982Y-68498137D01*
X162975388Y-68687129D01*
X162975389Y-68687132D01*
X163065608Y-68864194D01*
X163182414Y-69024964D01*
X163322931Y-69165481D01*
X163483701Y-69282287D01*
X163602227Y-69342679D01*
X163640175Y-69362015D01*
X163690971Y-69409990D01*
X163707766Y-69477811D01*
X163685228Y-69543946D01*
X163640175Y-69582985D01*
X163483700Y-69662713D01*
X163322928Y-69779521D01*
X163182416Y-69920033D01*
X163065608Y-70080805D01*
X162975389Y-70257867D01*
X162975388Y-70257870D01*
X162913982Y-70446862D01*
X162882895Y-70643139D01*
X162882895Y-70841860D01*
X162913982Y-71038137D01*
X162975388Y-71227129D01*
X162975389Y-71227132D01*
X163065608Y-71404194D01*
X163182414Y-71564964D01*
X163322931Y-71705481D01*
X163483701Y-71822287D01*
X163602227Y-71882679D01*
X163640175Y-71902015D01*
X163690971Y-71949990D01*
X163707766Y-72017811D01*
X163685228Y-72083946D01*
X163640175Y-72122985D01*
X163483700Y-72202713D01*
X163322932Y-72319518D01*
X163183523Y-72458927D01*
X163122200Y-72492411D01*
X163052508Y-72487427D01*
X163008161Y-72458926D01*
X160186819Y-69637584D01*
X160153334Y-69576261D01*
X160150500Y-69549903D01*
X160150500Y-64370945D01*
X160150500Y-64370943D01*
X160109577Y-64218216D01*
X160109573Y-64218209D01*
X160030524Y-64081290D01*
X160030521Y-64081286D01*
X160030520Y-64081284D01*
X159918716Y-63969480D01*
X159918715Y-63969479D01*
X159914385Y-63965149D01*
X159914374Y-63965139D01*
X151306819Y-55357584D01*
X151273334Y-55296261D01*
X151270500Y-55269903D01*
X151270500Y-50705047D01*
X151290185Y-50638008D01*
X151306819Y-50617366D01*
X151446966Y-50477219D01*
X151446968Y-50477215D01*
X151446971Y-50477213D01*
X151567284Y-50311614D01*
X151567286Y-50311611D01*
X151567287Y-50311610D01*
X151614516Y-50218917D01*
X151662489Y-50168123D01*
X151730310Y-50151328D01*
X151796445Y-50173865D01*
X151835485Y-50218919D01*
X151882715Y-50311614D01*
X152003028Y-50477213D01*
X152147786Y-50621971D01*
X152262133Y-50705047D01*
X152313390Y-50742287D01*
X152429607Y-50801503D01*
X152495776Y-50835218D01*
X152495778Y-50835218D01*
X152495781Y-50835220D01*
X152523813Y-50844328D01*
X152690465Y-50898477D01*
X152791557Y-50914488D01*
X152892648Y-50930500D01*
X152892649Y-50930500D01*
X153097351Y-50930500D01*
X153097352Y-50930500D01*
X153299534Y-50898477D01*
X153494219Y-50835220D01*
X153676610Y-50742287D01*
X153769590Y-50674732D01*
X153842213Y-50621971D01*
X153842215Y-50621968D01*
X153842219Y-50621966D01*
X153986966Y-50477219D01*
X153986968Y-50477215D01*
X153986971Y-50477213D01*
X154107284Y-50311614D01*
X154107286Y-50311611D01*
X154107287Y-50311610D01*
X154154516Y-50218917D01*
X154202489Y-50168123D01*
X154270310Y-50151328D01*
X154336445Y-50173865D01*
X154375485Y-50218919D01*
X154422715Y-50311614D01*
X154543028Y-50477213D01*
X154687786Y-50621971D01*
X154802133Y-50705047D01*
X154853390Y-50742287D01*
X154969607Y-50801503D01*
X155035776Y-50835218D01*
X155035778Y-50835218D01*
X155035781Y-50835220D01*
X155063813Y-50844328D01*
X155230465Y-50898477D01*
X155331557Y-50914488D01*
X155432648Y-50930500D01*
X155432649Y-50930500D01*
X155637351Y-50930500D01*
X155637352Y-50930500D01*
X155839534Y-50898477D01*
X156034219Y-50835220D01*
X156216610Y-50742287D01*
X156309590Y-50674732D01*
X156382213Y-50621971D01*
X156382215Y-50621968D01*
X156382219Y-50621966D01*
X156526966Y-50477219D01*
X156526968Y-50477215D01*
X156526971Y-50477213D01*
X156579732Y-50404590D01*
X156647287Y-50311610D01*
X156740220Y-50129219D01*
X156803477Y-49934534D01*
X156835500Y-49732352D01*
X156835500Y-49127648D01*
X156804195Y-48930000D01*
X156803477Y-48925465D01*
X156774127Y-48835137D01*
X156740220Y-48730781D01*
X156740218Y-48730778D01*
X156740218Y-48730776D01*
X156647419Y-48548650D01*
X156647287Y-48548390D01*
X156639556Y-48537749D01*
X156526971Y-48382786D01*
X156382213Y-48238028D01*
X156216613Y-48117715D01*
X156216612Y-48117714D01*
X156216610Y-48117713D01*
X156159653Y-48088691D01*
X156034223Y-48024781D01*
X155839534Y-47961522D01*
X155664995Y-47933878D01*
X155637352Y-47929500D01*
X155432648Y-47929500D01*
X155408329Y-47933351D01*
X155230465Y-47961522D01*
X155035776Y-48024781D01*
X154853386Y-48117715D01*
X154687786Y-48238028D01*
X154543028Y-48382786D01*
X154422715Y-48548386D01*
X154375485Y-48641080D01*
X154327510Y-48691876D01*
X154259689Y-48708671D01*
X154193554Y-48686134D01*
X154154515Y-48641080D01*
X154107419Y-48548650D01*
X154107287Y-48548390D01*
X154099556Y-48537749D01*
X153986971Y-48382786D01*
X153842213Y-48238028D01*
X153676613Y-48117715D01*
X153676612Y-48117714D01*
X153676610Y-48117713D01*
X153619653Y-48088691D01*
X153494223Y-48024781D01*
X153299534Y-47961522D01*
X153124995Y-47933878D01*
X153097352Y-47929500D01*
X152892648Y-47929500D01*
X152868329Y-47933351D01*
X152690465Y-47961522D01*
X152495776Y-48024781D01*
X152313386Y-48117715D01*
X152147786Y-48238028D01*
X152003028Y-48382786D01*
X151882715Y-48548386D01*
X151835485Y-48641080D01*
X151787510Y-48691876D01*
X151719689Y-48708671D01*
X151653554Y-48686134D01*
X151614515Y-48641080D01*
X151567419Y-48548650D01*
X151567287Y-48548390D01*
X151559556Y-48537749D01*
X151446971Y-48382786D01*
X151302213Y-48238028D01*
X151136613Y-48117715D01*
X151136612Y-48117714D01*
X151136610Y-48117713D01*
X151079653Y-48088691D01*
X150954223Y-48024781D01*
X150759534Y-47961522D01*
X150584995Y-47933878D01*
X150557352Y-47929500D01*
X150352648Y-47929500D01*
X150328329Y-47933351D01*
X150150465Y-47961522D01*
X149955776Y-48024781D01*
X149773386Y-48117715D01*
X149607786Y-48238028D01*
X149463028Y-48382786D01*
X149342713Y-48548388D01*
X149295203Y-48641630D01*
X149247228Y-48692426D01*
X149179407Y-48709220D01*
X149113272Y-48686682D01*
X149074234Y-48641628D01*
X149026861Y-48548652D01*
X148906582Y-48383105D01*
X148906582Y-48383104D01*
X148761895Y-48238417D01*
X148596349Y-48118140D01*
X148414029Y-48025244D01*
X148219413Y-47962009D01*
X148165000Y-47953390D01*
X148165000Y-48996988D01*
X148107993Y-48964075D01*
X147980826Y-48930000D01*
X147849174Y-48930000D01*
X147722007Y-48964075D01*
X147665000Y-48996988D01*
X147665000Y-47953390D01*
X147610586Y-47962009D01*
X147415970Y-48025244D01*
X147233650Y-48118140D01*
X147068105Y-48238417D01*
X147068104Y-48238417D01*
X146923417Y-48383104D01*
X146923417Y-48383105D01*
X146803140Y-48548650D01*
X146710244Y-48730968D01*
X146647009Y-48925582D01*
X146615000Y-49127682D01*
X136940500Y-49127682D01*
X136940500Y-46854500D01*
X136960185Y-46787461D01*
X137012989Y-46741706D01*
X137064500Y-46730500D01*
X166605500Y-46730500D01*
X166672539Y-46750185D01*
G37*
%TD.AperFunction*%
%TD*%
M02*
