M48
; DRILL file {KiCad 9.0.0} date 2025-05-27T22:11:39-0400
; FORMAT={-:-/ absolute / inch / decimal}
; #@! TF.CreationDate,2025-05-27T22:11:39-04:00
; #@! TF.GenerationSoftware,Kicad,Pcbnew,9.0.0
; #@! TF.FileFunction,Plated,1,2,PTH
FMAT,2
INCH
; #@! TA.AperFunction,Plated,PTH,ComponentDrill
T1C0.0300
; #@! TA.AperFunction,Plated,PTH,ComponentDrill
T2C0.0315
; #@! TA.AperFunction,Plated,PTH,ComponentDrill
T3C0.0394
; #@! TA.AperFunction,Plated,PTH,ComponentDrill
T4C0.0433
%
G90
G05
T1
X5.4778Y-3.0543
X5.4778Y-3.1543
X5.4778Y-3.2543
X5.4778Y-3.3543
X5.4778Y-3.4543
X5.4778Y-3.5543
X5.4778Y-3.6543
X5.4778Y-3.7543
X5.4778Y-3.8543
X5.4778Y-3.9543
X5.4778Y-4.0543
X5.4778Y-4.1543
X5.4778Y-4.2543
X5.4778Y-4.3543
X5.4778Y-4.4543
X5.4778Y-4.5543
X5.4778Y-4.6543
X5.4778Y-4.7543
X5.5097Y-2.5851
X5.5097Y-2.6851
X5.5097Y-2.7851
X5.5097Y-2.8851
X5.9034Y-2.5851
X5.9034Y-2.6851
X5.9034Y-2.7851
X5.9034Y-2.8851
X6.0687Y-2.5851
X6.0687Y-2.6851
X6.0687Y-2.7851
X6.0687Y-2.8851
X6.4624Y-2.5851
X6.4624Y-2.6851
X6.4624Y-2.7851
X6.4624Y-2.8851
X6.4778Y-3.0543
X6.4778Y-3.1543
X6.4778Y-3.2543
X6.4778Y-3.3543
X6.4778Y-3.4543
X6.4778Y-3.5543
X6.4778Y-3.6543
X6.4778Y-3.7543
X6.4778Y-3.8543
X6.4778Y-3.9543
X6.4778Y-4.0543
X6.4778Y-4.1543
X6.4778Y-4.2543
X6.4778Y-4.3543
X6.4778Y-4.4543
X6.4778Y-4.5543
X6.4778Y-4.6543
X6.4778Y-4.7543
T2
X5.8224Y-4.9803
X5.8278Y-3.1693
X5.8278Y-3.3287
X6.1224Y-4.9803
X6.1278Y-3.1693
X6.1278Y-3.3287
T3
X5.8234Y-1.9461
X5.9234Y-1.9461
X6.0234Y-1.9461
X6.1234Y-1.9461
T4
X5.4783Y-4.9882
X5.6594Y-4.9882
X6.2894Y-4.9783
X6.4705Y-4.9783
M30
